<svg id="Layer_1" data-name="Layer 1" xmlns="http://www.w3.org/2000/svg" viewBox="0 0 429.42 477"><defs><style>.cls-1{fill:#a10f1f;}</style></defs><title>bank parsian</title><path d="M346.34,274.59s7.08-112.07-81.4-181.68c0,0,118,14.16,154.54,149.82,0,0-17.11-15.93-40.7,13.57C378.78,256.31,367,216.19,346.34,274.59Z" transform="translate(-244.29 -53)"/><path d="M570.48,274.59s-7.08-112.07,81.4-181.68c0,0-118,14.16-154.54,149.82,0,0,17.11-15.93,40.7,13.57C538,256.31,549.84,216.19,570.48,274.59Z" transform="translate(-244.29 -53)"/><path d="M457.82,81.71s13,65.7,38.93,114.07c0,0-24.77,29.85-20.06,52.27,0,0-15.7-15-36.57,0,0,0,3.88-28-20.77-52.27C419.35,195.78,447,154,457.82,81.71Z" transform="translate(-244.29 -53)"/><path class="cls-1" d="M380,81.71l48.37,60.17-20.06,42.47s-26-43.65-38.93-50.73C369.34,133.61,382.32,99.4,380,81.71Z" transform="translate(-244.29 -53)"/><path class="cls-1" d="M538,81.71l-48.37,60.17,20.06,42.47s26-43.65,38.93-50.73C548.66,133.61,535.68,99.4,538,81.71Z" transform="translate(-244.29 -53)"/><path d="M357.54,126.54s10.62-21.23,4.72-50.73c0,0-5.9-14.16-27.13-5.9,0,0-29.49-2.36-22.41,23.59Z" transform="translate(-244.29 -53)"/><path d="M560,126.54s-10.62-21.23-4.72-50.73c0,0,5.9-14.16,27.13-5.9,0,0,29.49-2.36,22.41,23.59Z" transform="translate(-244.29 -53)"/><path d="M428.33,120.64S449.56,97,442.48,59.29c0,0-13-14.16-27.13,0,0,0-27.13-7.08-23.59,17.7Z" transform="translate(-244.29 -53)"/><path d="M488.44,120.64S467.2,97,474.28,59.29c0,0,13-14.16,27.13,0,0,0,27.13-7.08,23.59,17.7Z" transform="translate(-244.29 -53)"/><path class="cls-1" d="M433,507.59V384.89s-88.48-33-63.7-118c0,0,37.75,22.41,38.93,36.57,0,0,8.26-37.75,20.06-42.47,0,0,30.67,41.29,21.23,123.87l2.36,122.69Z" transform="translate(-244.29 -53)"/><path class="cls-1" d="M485,507.59V384.89s88.48-33,63.7-118c0,0-37.75,22.41-38.93,36.57,0,0-8.26-37.75-20.06-42.47,0,0-30.67,41.29-21.23,123.87l-2.36,122.69Z" transform="translate(-244.29 -53)"/><path class="cls-1" d="M451.92,507.59V530H244.29V189.06s13-56.63,43.65-55.45l9.44,9.44s-33,26-31.85,47.19V507.59Z" transform="translate(-244.29 -53)"/><path class="cls-1" d="M466.08,507.59V530H673.71V189.06s-13-56.63-43.65-55.45l-9.44,9.44s33,26,31.85,47.19V507.59Z" transform="translate(-244.29 -53)"/></svg>