<svg id="Layer_1" data-name="Layer 1" xmlns="http://www.w3.org/2000/svg" viewBox="0 0 562.37 548.84"><defs><style>.cls-1,.cls-4{opacity:0.57;}.cls-2,.cls-3,.cls-4{fill:#02aae8;}.cls-2{opacity:0.44;}.cls-5{fill:#0070bc;}</style></defs><title>bank saman</title><g class="cls-1"><path class="cls-2" d="M419.63,368.56s-.21,2-.61,5.09c2.17,1.73,4.34,3.43,6.51,5.07A60.23,60.23,0,0,1,419.63,368.56Z" transform="translate(-225.63 -5.45)"/><path class="cls-3" d="M452.35,278.18a85.94,85.94,0,0,1-5.73,11.54s42.59-21.3,49.31-17.9c0,0-18.19,28.29-38.94,40.73,0,0,39.43-2.06,51.87,10.39,0,0-47.61,17-51.82,13.67,0,0,26.91,19.52,31.06,32,0,0-22.83,2.07-47.72-10.39,0,0,12.22,22.72,12.62,39.29,150.6,91.86,289.29,1.27,289.29,1.27C683.66,235.53,495.37,268.34,452.35,278.18Z" transform="translate(-225.63 -5.45)"/></g><path class="cls-4" d="M507.4,323.61c-9.06,3.12-46.22,15.64-49.9,12.71,0,0,26.81,19.66,30.89,32.14,0,0-22.84,2-47.67-10.64,0,0,14.38,27.05,12.21,43.64,0,0-22.77-10.5-33-33.38,0,0-3.76,33.94-9.29,40.44,33.6,102.88,190,117.22,190,117.22C640.87,394.68,562,343.16,507.4,323.61Z" transform="translate(-225.63 -5.45)"/><g class="cls-1"><path class="cls-2" d="M376.93,360.53q-1.81,6.5-3.13,12.77a119.08,119.08,0,0,1,6.4-15.14S379,359.15,376.93,360.53Z" transform="translate(-225.63 -5.45)"/><path class="cls-2" d="M459.66,338.56c.77.59,1.67,1.29,2.69,2.1-1.43-1.42-2.25-2.18-2.25-2.18Z" transform="translate(-225.63 -5.45)"/><path class="cls-3" d="M485.73,368.69a99.91,99.91,0,0,1-45.35-10.5s14.52,27,12.44,43.58c0,0-22.82-10.38-33.19-33.21,0,0-4.16,39.42-10.39,41.5,0,0-8.3-2.08-10.36-39.43,0,0-15.68,21.87-27.56,28.57a13.19,13.19,0,0,1-.84-3.48C361.54,503.35,460,554.29,460,554.29,546.93,486,514.57,409.76,485.73,368.69Z" transform="translate(-225.63 -5.45)"/></g><g class="cls-1"><path class="cls-3" d="M419.63,368.56s-4.16,39.42-10.39,41.5c0,0-8.3-2.08-10.36-39.43,0,0-15.68,21.87-27.56,28.57,0,0-5.65-12,8.89-41,0,0-18.8,15-33.13,11.1-53.39,86.22,3,164.24,3,164.24,83.36-23.42,98.88-88.54,98.89-133.8C442,395.66,427.35,385.57,419.63,368.56Z" transform="translate(-225.63 -5.45)"/><path class="cls-2" d="M445.17,360.42q-2.37-1-4.79-2.23a148.18,148.18,0,0,1,6.89,15.29C446.6,368.23,445.83,363.81,445.17,360.42Z" transform="translate(-225.63 -5.45)"/></g><path class="cls-4" d="M398.87,370.63s-15.68,21.87-27.56,28.57c0,0-5.65-12,8.89-41,0,0-20.76,16.59-35.28,10.36,0,0,14.65-24.39,22.33-27.09-5.66-.4-19.78-2.19-32.69-10.26,0,0,20.75-14.52,35.28-12.44,0,0-2.38-2-5.67-4.91-112.7,41.6-88.79,157.4-88.79,157.4C358.46,482.94,392.83,441,406.91,408,404.3,404.52,400.23,395.23,398.87,370.63Z" transform="translate(-225.63 -5.45)"/><g class="cls-1"><path class="cls-2" d="M398.87,370.63S385.73,389,374.4,397.19a163.75,163.75,0,0,0,24.9-20.43C399.14,374.83,399,372.79,398.87,370.63Z" transform="translate(-225.63 -5.45)"/><path class="cls-3" d="M380.2,358.17s-20.76,16.59-35.28,10.36c0,0,14.65-24.39,22.33-27.09-5.66-.4-19.78-2.19-32.69-10.26,0,0,20.75-14.52,35.28-12.44,0,0-24.89-20.76-24.89-27,0,0,22.83-2.07,35.27,4.16,0,0-.48-1.44-1.19-3.84C267.11,267.95,236,392.36,236,392.36c54.85,42.41,104.47,26.38,135.34,6.82C371.27,399.08,365.73,387.09,380.2,358.17Z" transform="translate(-225.63 -5.45)"/></g><path class="cls-4" d="M367.25,341.45c-5.66-.4-19.78-2.19-32.69-10.26,0,0,20.75-14.52,35.28-12.44,0,0-24.89-20.76-24.89-27,0,0,22.83-2.07,35.27,4.16,0,0-6.52-19.6-7.46-35-82.92-57.41-147.13,27.66-147.13,27.66,34.26,75.93,84.44,84.66,119.82,79.06C348.13,363.33,360.43,343.84,367.25,341.45Z" transform="translate(-225.63 -5.45)"/><path class="cls-4" d="M369.84,318.74s-24.89-20.76-24.89-27c0,0,22.83-2.07,35.27,4.16,0,0-8.29-24.9-7.52-40.58,0,0,22.05,13.61,28.28,28.14,0,0,4.29-31.36,9.3-43.26-30.1-112-149.34-67.79-149.34-67.79C259.6,277,303.58,315.7,336.31,330,341.59,326.64,357.84,317,369.84,318.74Z" transform="translate(-225.63 -5.45)"/><path class="cls-4" d="M380.22,295.92s-8.29-24.9-7.52-40.58c0,0,22.05,13.61,28.28,28.14,0,0,6.24-45.65,12.46-47.72,0,0,10.37,14.53,10.36,43.58,0,0,17-21.29,28.24-31.85C485.14,85,344,66.61,344,66.61c-47.42,129.6-19,195.57,4.76,224.92C355.76,291.24,370.9,291.25,380.22,295.92Z" transform="translate(-225.63 -5.45)"/><path class="cls-4" d="M372.7,255.34s22.05,13.61,28.28,28.14c0,0,6.24-45.65,12.46-47.72,0,0,10.37,14.53,10.36,43.58,0,0,33.21-41.49,37.36-37.34,0,0-2.08,27-14.54,47.72,0,0,30.68-15.34,44.07-17.9,129-156,12-266.36,12-266.36-121.47,116.94-139.45,201-130.05,253.8C372.64,257.9,372.64,256.59,372.7,255.34Z" transform="translate(-225.63 -5.45)"/><g class="cls-1"><path class="cls-3" d="M413.88,236.42c2,3.15,9.93,17.45,9.92,42.91,0,0,33.21-41.49,37.36-37.34,0,0-2.08,27-14.54,47.72,0,0,42.59-21.3,49.31-17.9,0,0-18.19,28.29-38.94,40.73,0,0,32.24-1.69,47.62,7.2C678.86,231.62,684.3,35.59,684.3,35.59,496.47,90.26,433.88,176.28,413.88,236.42Z" transform="translate(-225.63 -5.45)"/><path class="cls-2" d="M457,336.6l3.05,1.88c2.76-.95,5.47-1.93,8.16-2.93C462.54,336.9,458.19,337.5,457,336.6Z" transform="translate(-225.63 -5.45)"/></g><g class="cls-1"><path class="cls-2" d="M423.63,273.24c.1,2,.17,4,.17,6.09,0,0,11.58-14.46,21.91-25.45C436,261.72,428.57,268.51,423.63,273.24Z" transform="translate(-225.63 -5.45)"/><path class="cls-3" d="M461.16,242c0,.34-2.16,27.09-14.54,47.71,0,0,42.59-21.3,49.31-17.9,0,0-18.19,28.29-38.94,40.73,0,0,39.43-2.06,51.87,10.39,0,0-47.61,17-51.82,13.67,0,0,26.91,19.52,31.06,32,0,0-21.34,1.93-45.25-9.2l.64,1.92C638.53,421.54,788,199.55,788,199.55,643.35,135.68,522.92,196.87,461.16,242Z" transform="translate(-225.63 -5.45)"/></g><path class="cls-5" d="M490.89,271.55c23.32-2.8,53.12-4.32,84.33-.5a312.14,312.14,0,0,1-70.59,48.68,43.87,43.87,0,0,0-11.18-4.23l-1.58-.37c-.35-.08-.73-.17-1.08-.23s-.93-.21-1.41-.29A109.26,109.26,0,0,0,477.22,313l-1.58-.12c-.52,0-1-.08-1.56-.1-1-.06-1.89-.12-2.8-.15l-1.27-.06-1.85-.06c-.87,0-1.7,0-2.49,0-5.21-.08-8.67.1-8.67.1,20.75-12.45,38.93-40.75,38.93-40.75-1-.52-2.84-.46-5.23,0A.9.9,0,0,0,490.89,271.55Z" transform="translate(-225.63 -5.45)"/><path class="cls-5" d="M573.21,363.23a231.82,231.82,0,0,1-86.3,7.12c-.37-.56-.77-1.12-1.14-1.66,1.54,0,2.37-.1,2.37-.1s0-.06,0-.1l.33,0c-3.28-10-21.19-24.63-28.14-30,2.7-.93,5.37-1.89,8-2.86,4.09-1,8.88-2.3,13.72-3.78.25-.06.5-.15.75-.23.64-.19,1.31-.37,2-.58,9.52-2.86,18.78-6,22.72-7.37C528.47,331.15,553.14,343.46,573.21,363.23Z" transform="translate(-225.63 -5.45)"/><path class="cls-5" d="M535.88,199c-9.48,22.78-23.95,47.06-45,72.56a386.06,386.06,0,0,0-38.53,6.64c.08-.19.17-.39.23-.58.83-2.05,1.6-4.09,2.26-6.12a136.13,136.13,0,0,0,5.23-21.27c.23-1.31.42-2.47.54-3.51a.52.52,0,0,0,0-.17c.1-.64.17-1.22.23-1.74,0-.08,0-.15,0-.23q.09-.62.12-1.12c.1-.89.15-1.39.15-1.43A390.91,390.91,0,0,1,535.88,199Z" transform="translate(-225.63 -5.45)"/><path class="cls-5" d="M490.89,271.55a.9.9,0,0,1-.19.23,60.21,60.21,0,0,0-6.89,1.89l-2.76,1c-.37.12-.75.27-1.14.42-.56.19-1.14.42-1.72.64l-1.83.71c-1,.39-2.1.81-3.13,1.25a5.4,5.4,0,0,0-.52.21c-.62.25-1.22.5-1.85.77-1.89.79-3.78,1.6-5.6,2.41-1.14.5-2.26,1-3.34,1.49l-1.39.62-2.64,1.2s-.06,0-.08,0l-1.51.71-.06,0c-.48.23-.93.46-1.39.66l-.93.44c-.58.27-1.16.54-1.68.81-3.22,1.54-5.31,2.57-5.58,2.7.37-.64.75-1.29,1.1-1.93.17-.29.33-.56.48-.85v0c.52-.91,1-1.85,1.45-2.78s1-2.12,1.49-3.2c.19-.42.37-.83.56-1.27.12-.27.23-.54.33-.81a6.41,6.41,0,0,0,.29-.66A386.06,386.06,0,0,1,490.89,271.55Z" transform="translate(-225.63 -5.45)"/><path class="cls-5" d="M486.91,370.35C497,385,507.39,403.94,512.7,425.25a286.46,286.46,0,0,1-59.49-27.66c-.06-8.18-3.07-17.91-6.12-25.71-.52-3.84-1.08-7.2-1.62-10A231.45,231.45,0,0,0,486.91,370.35Z" transform="translate(-225.63 -5.45)"/><path class="cls-5" d="M485.76,368.69c.37.54.77,1.1,1.14,1.66a231.45,231.45,0,0,1-41.44-8.45c-.08-.52-.17-1-.27-1.45l.39.17,1.72.71a3.86,3.86,0,0,0,.52.21.74.74,0,0,0,.23.08c.48.21.93.39,1.39.56a4.35,4.35,0,0,1,.48.17,9.71,9.71,0,0,0,1,.37c.58.21,1.16.42,1.74.6s.89.31,1.35.46,1.12.37,1.68.54l1,.29q2.65.78,5.17,1.37c.5.12,1,.23,1.45.33l.23.06,1.47.31c.52.1,1,.21,1.51.29.33.08.66.12,1,.19s.91.17,1.35.23l.31.06,1,.15.37.06.91.12.39.06a2.54,2.54,0,0,0,.39,0,3.15,3.15,0,0,0,.44.06l.44.06.77.08a11.66,11.66,0,0,0,1.16.12c.56.06,1.1.12,1.64.17h.12l.44,0,.54,0a4,4,0,0,1,.5,0h.15l.91.06.73,0,.54,0,.31,0C482.9,368.73,484.54,368.73,485.76,368.69Z" transform="translate(-225.63 -5.45)"/><path class="cls-5" d="M466.61,336c.54-.15,1.08-.27,1.66-.39-2.61,1-5.29,1.93-8,2.86L458.46,337a11.59,11.59,0,0,0,1.2,0,4.51,4.51,0,0,0,.52,0h0l.68-.06c1-.1,2.1-.27,3.34-.5Z" transform="translate(-225.63 -5.45)"/><path class="cls-5" d="M453.56,166.78c4.73,21.87,5,48.43-1.51,80.68-.33.35-.68.68-1.06,1.06s-.73.68-1.1,1.08l-.85.85a1.21,1.21,0,0,0-.27.29c-1,1-2,2.05-3.05,3.15,0,0,0,0,0,0-9.69,7.84-17.1,14.61-22,19.36,0-.27,0-.52,0-.79,0-.73-.08-1.45-.15-2.16s-.1-1.41-.19-2.1c-.12-1.39-.29-2.72-.46-4s-.35-2.32-.54-3.42a89.61,89.61,0,0,0-2.37-10.17c-.1-.37-.21-.73-.33-1.08-.42-1.37-.87-2.64-1.29-3.8-.15-.35-.27-.71-.42-1-.27-.73-.56-1.41-.83-2s-.52-1.2-.77-1.74l0,0c-.25-.54-.5-1.06-.75-1.51a32.87,32.87,0,0,0-1.64-2.95C420.79,215.55,432.87,191.52,453.56,166.78Z" transform="translate(-225.63 -5.45)"/><path class="cls-5" d="M447.6,398.9c.5.29,1,.58,1.39.83,0,17.14-2.22,37.08-9.5,56.57a126.51,126.51,0,0,1-28.72-47.46c1.35-1.78,2.59-5.19,3.67-9.3.15-.56.29-1.14.44-1.72a230.19,230.19,0,0,0,4.36-24c2.12,1.68,4.21,3.32,6.33,4.94.81,1.12,1.62,2.2,2.47,3.24.29.35.58.71.89,1.06,1.2,1.43,2.43,2.76,3.67,4,.54.56,1.1,1.1,1.64,1.62.15.15.31.29.48.44.46.44.93.87,1.39,1.27s1.06.93,1.58,1.37c1.29,1.1,2.55,2.08,3.76,3a1.14,1.14,0,0,1,.19.15c.93.71,1.87,1.35,2.74,1.93.68.48,1.37.91,2,1.33C446.79,398.4,447.21,398.67,447.6,398.9Z" transform="translate(-225.63 -5.45)"/><path class="cls-5" d="M445.72,253.9l-.44.48a.36.36,0,0,0-.1.08l.5-.54S445.69,253.92,445.72,253.9Z" transform="translate(-225.63 -5.45)"/><path class="cls-5" d="M445.47,361.9c.54,2.78,1.1,6.14,1.62,10-2.49-6.41-5-11.5-6-13.32.58.29,1.16.56,1.74.83v0l.64,1.91C444.16,361.53,444.82,361.72,445.47,361.9Z" transform="translate(-225.63 -5.45)"/><path class="cls-5" d="M445.67,253.92l-.5.54c-.25.27-.5.56-.79.85s-.42.46-.62.68a1.25,1.25,0,0,1-.17.17c-.25.29-.52.58-.79.87a7.58,7.58,0,0,1-.56.62l-.54.6c-.73.79-1.43,1.58-2.14,2.39-.23.25-.46.52-.68.79-2.18,2.47-4.3,4.92-6.2,7.18a1.45,1.45,0,0,0-.17.21c-5,6-8.72,10.54-8.72,10.54,0-1.06,0-2.1,0-3.11V276c0-.66,0-1.31-.08-1.93,0-.27,0-.54,0-.81C428.58,268.52,436,261.76,445.67,253.92Z" transform="translate(-225.63 -5.45)"/><path class="cls-5" d="M445.47,361.9c-.64-.19-1.31-.37-2-.58l-.64-1.91a.16.16,0,0,1,.08,0l.93.44,1.31.58C445.3,360.91,445.38,361.38,445.47,361.9Z" transform="translate(-225.63 -5.45)"/><path class="cls-5" d="M443.6,256.16l-.68.79a.36.36,0,0,0-.1.08C443.08,256.74,443.35,256.45,443.6,256.16Z" transform="translate(-225.63 -5.45)"/><path class="cls-5" d="M439.57,260.64c.71-.81,1.41-1.6,2.14-2.39Z" transform="translate(-225.63 -5.45)"/><path class="cls-5" d="M439.57,260.64c-.23.27-.46.54-.68.79C439.12,261.16,439.35,260.89,439.57,260.64Z" transform="translate(-225.63 -5.45)"/><path class="cls-5" d="M432.68,268.61c-.06.08-.12.15-.17.21A1.45,1.45,0,0,1,432.68,268.61Z" transform="translate(-225.63 -5.45)"/><path class="cls-5" d="M425.55,378.71s0,0,0,0c-2.12-1.62-4.21-3.26-6.33-4.94.29-2.2.5-3.9.6-4.86.29.66.6,1.31,1,2a1.56,1.56,0,0,0,.21.42,3.13,3.13,0,0,0,.19.37,4.46,4.46,0,0,0,.29.54c.23.44.48.89.73,1.31.12.23.25.44.37.64s.19.31.27.46,0,0,0,0c.35.56.71,1.14,1.08,1.7.19.31.39.6.6.91.08.12.17.23.23.33s.33.5.52.75Z" transform="translate(-225.63 -5.45)"/><path class="cls-5" d="M423.76,276.24c0,1,0,2.05,0,3.11C423.8,278.3,423.78,277.26,423.76,276.24Z" transform="translate(-225.63 -5.45)"/><path class="cls-5" d="M423.76,276c0-.64-.06-1.31-.08-1.93C423.72,274.71,423.74,275.35,423.76,276Z" transform="translate(-225.63 -5.45)"/><path class="cls-5" d="M410.27,240.22s0,0,0,0c-.15.35-.31.73-.46,1.12,0,.1-.06.21-.1.31-.12.31-.25.64-.35,1s-.31.89-.46,1.37c-.37,1.14-.75,2.41-1.1,3.71-.17.64-.35,1.31-.52,2-.27,1-.52,2-.75,3.09l-.25,1.08c-.39,1.7-.79,3.49-1.14,5.25-.25,1.14-.48,2.3-.68,3.44s-.42,2.16-.6,3.24-.37,2.08-.56,3.07c-.12.68-.23,1.37-.35,2,0,.33-.1.64-.17,1-.1.64-.21,1.27-.29,1.87-.06.31-.1.6-.15.89s-.15.81-.21,1.2-.12.85-.19,1.27c-.25,1.58-.46,2.93-.62,4q-.06.47-.12.87a.35.35,0,0,1,0,.15,1.6,1.6,0,0,1,0,.31,1.21,1.21,0,0,1,0,.27,3.2,3.2,0,0,0,0,.39l-.06.39c-6.23-14.53-28.28-28.12-28.28-28.12-.06,1.16-.06,2.37,0,3.63v.27c-3.57-20.07-3.2-44.66,5.31-73.87C391.74,197.06,403.36,214.53,410.27,240.22Z" transform="translate(-225.63 -5.45)"/><path class="cls-5" d="M405.31,405.29A17.21,17.21,0,0,0,407,408c-6,14.13-15.75,29.9-31.44,42.39a153,153,0,0,1-5.29-50.49l1.12-.71a30,30,0,0,0,3.09-2s.1-.06.15-.1l.19-.12a162.69,162.69,0,0,0,24.55-20.19c0,.12,0,.25,0,.37s0,.44.06.64c0,.64.1,1.27.17,1.89s.08.93.15,1.39c.33,3.13.71,5.93,1.12,8.42.08.5.17,1,.25,1.45,0,.19.06.37.1.56.12.71.27,1.39.39,2.05l.31,1.37c.08.42.17.81.27,1.18s.19.75.29,1.12c.12.54.27,1.06.42,1.54.44,1.54.87,2.84,1.33,4,.15.37.29.75.44,1.08s.15.35.23.5C405,404.71,405.17,405,405.31,405.29Z" transform="translate(-225.63 -5.45)"/><path class="cls-5" d="M399.28,376.16c0,.21,0,.44,0,.64A162.69,162.69,0,0,1,374.77,397c.25-.19.48-.37.73-.58a74.2,74.2,0,0,0,7.51-6.79c.35-.35.73-.73,1.08-1.1q1.18-1.25,2.3-2.49c.39-.42.75-.81,1.1-1.22,6.45-7.24,11.41-14.15,11.41-14.15,0,.77.08,1.51.15,2.26s.08,1.47.15,2.18C399.21,375.45,399.23,375.81,399.28,376.16Z" transform="translate(-225.63 -5.45)"/><path class="cls-5" d="M380.23,296c-9.32-4.67-24.46-4.67-31.48-4.38-.64-.79-1.29-1.6-1.93-2.45a127.56,127.56,0,0,1,32.2,3C379.75,294.53,380.23,296,380.23,296Z" transform="translate(-225.63 -5.45)"/><path class="cls-5" d="M378.32,359.62c1.22-.85,1.91-1.41,1.91-1.41-.52,1-1,2-1.45,3-.83,1.74-1.58,3.42-2.26,5q-.4.93-.75,1.87c-.5,1.22-1,2.41-1.35,3.55q-.31.84-.56,1.62,1.28-6.26,3.09-12.72c.27-.17.5-.33.73-.5a.06.06,0,0,1,0,0l.56-.39S378.32,359.64,378.32,359.62Z" transform="translate(-225.63 -5.45)"/><path class="cls-5" d="M378.94,291.83a2.13,2.13,0,0,1,.08.29,127.56,127.56,0,0,0-32.2-3c-8.34-10.89-17-26.33-22.54-47.44,15.11,1.7,31.37,7.49,48.47,19.3,0,.48.06,1,.1,1.45.19,2.45.52,5,.93,7.49.1.6.21,1.22.31,1.85.27,1.62.6,3.22.93,4.79.23,1.06.46,2.08.68,3.09.58,2.53,1.2,4.9,1.76,7,.21.75.39,1.45.6,2.14.15.52.27,1,.39,1.47S378.8,291.37,378.94,291.83Z" transform="translate(-225.63 -5.45)"/><path class="cls-5" d="M375.66,361.43c.46-.29.89-.58,1.29-.85q-1.81,6.47-3.09,12.72C370,384.67,370,392,370.52,395.83v0c-.12,1.37-.23,2.74-.29,4.09-11.85,7.39-26.37,14.15-42.83,17.33a153.17,153.17,0,0,1,19.71-48,9,9,0,0,0,1.25.29,9.22,9.22,0,0,0,1.29.21A27,27,0,0,0,361,368.52a43.12,43.12,0,0,0,4.81-1.78c.77-.31,1.51-.66,2.26-1,.35-.17.73-.35,1.08-.54,1.08-.54,2.1-1.1,3.07-1.64s1.85-1.1,2.68-1.62Z" transform="translate(-225.63 -5.45)"/><path class="cls-5" d="M364.19,313.86c3.28,2.93,5.66,4.92,5.66,4.92a20.26,20.26,0,0,0-3-.21c-.44,0-.89,0-1.35,0s-1,.06-1.51.12c-.29,0-.58.06-.87.1a41.64,41.64,0,0,0-4.69.93c-.42.12-.83.23-1.22.35s-1.06.31-1.6.48l-2,.68a93.77,93.77,0,0,0-17.35,8.78c-.89-.39-1.78-.79-2.7-1.22A159.39,159.39,0,0,1,364.19,313.86Z" transform="translate(-225.63 -5.45)"/><path class="cls-5" d="M367.26,341.48c-1.7.6-3.76,2.26-5.89,4.5-.48.5-1,1-1.45,1.58a2.22,2.22,0,0,0-.29.33c-.31.35-.62.71-.93,1.08-.62.73-1.25,1.49-1.85,2.28a13,13,0,0,0-.93,1.18c-.64.83-1.27,1.66-1.89,2.51s-1,1.43-1.54,2.14c-3.26,4.61-5.93,8.86-7,10.62-14.42,2.28-31.29,2.2-48.56-3.86a125.72,125.72,0,0,1,36.71-35c.91.44,1.81.83,2.7,1.22-1.12.73-1.74,1.16-1.74,1.16C347.48,339.3,361.61,341.09,367.26,341.48Z" transform="translate(-225.63 -5.45)"/><path class="cls-5" d="M345,291.81c0,4.3,11.89,15.54,19.24,22.06a159.39,159.39,0,0,0-30.57,15A107.68,107.68,0,0,1,299.07,303a99.92,99.92,0,0,1,47.75-13.86c.64.85,1.29,1.66,1.93,2.45C346.4,291.68,345,291.81,345,291.81Z" transform="translate(-225.63 -5.45)"/><path class="cls-3" d="M610.29,438.24a265.79,265.79,0,0,1-97.65-13C507.32,403.92,497,385,486.86,370.33a232.3,232.3,0,0,0,86.32-7.06C591.49,381.3,606,405.62,610.29,438.24Z" transform="translate(-225.63 -5.45)"/><path class="cls-3" d="M575.24,271.08c35.28,4.34,72.34,15.48,103.94,39.24-30.46,22.33-66.26,42.21-106,53-20.07-19.82-44.74-32.12-65.78-39.65-3.8,1.31-12.55,4.25-21.71,7,12-3.74,23.16-7.72,23.16-7.72a21.31,21.31,0,0,0-4.25-3.2,312.7,312.7,0,0,0,70.61-48.66Z" transform="translate(-225.63 -5.45)"/><path class="cls-3" d="M647.83,172.33c-16.1,33.33-39.26,68.17-72.59,98.75h0c-31.21-3.82-61-2.32-84.33.48,21-25.5,35.52-49.8,45-72.56C568.19,185,605.93,174.3,647.83,172.33Z" transform="translate(-225.63 -5.45)"/><path class="cls-3" d="M547.77,91.19c6.2,29.8,5.44,66.3-11.85,107.8a391.35,391.35,0,0,0-74.74,43c-1.18-1.18-4.69,1.31-9.13,5.48,6.58-32.25,6.27-58.81,1.56-80.68C474.77,141.49,504.92,115.43,547.77,91.19Z" transform="translate(-225.63 -5.45)"/><path class="cls-3" d="M512.64,425.23c5.79,23.1,5.66,49-7.08,75.35-23.61-10.27-47.5-24.55-66.11-44.28,7.28-19.48,9.5-39.45,9.5-56.59,2.39,1.39,3.86,2.05,3.86,2.05s0-.21,0-.33a.23.23,0,0,1,.08,0,29.65,29.65,0,0,0,.23-3.9A286.81,286.81,0,0,0,512.64,425.23Z" transform="translate(-225.63 -5.45)"/><path class="cls-3" d="M439.45,456.3a117,117,0,0,1-35.21,49.95,158.88,158.88,0,0,1-28.78-55.84c15.69-12.49,25.44-28.26,31.46-42.39,1.35,1.81,2.32,2.05,2.32,2.05a3.25,3.25,0,0,0,1.49-1.25A126.07,126.07,0,0,0,439.45,456.3Z" transform="translate(-225.63 -5.45)"/><path class="cls-3" d="M418.45,103.12c15.54,14.73,29.07,35.23,35.15,63.66-20.69,24.73-32.77,48.74-39.72,69.64-.27-.44-.44-.66-.44-.66-1.14.37-2.28,2.24-3.4,5,.08-.19.15-.37.23-.56C403.38,214.51,391.78,197,378,185.38,385.08,161.16,397.76,133.75,418.45,103.12Z" transform="translate(-225.63 -5.45)"/><path class="cls-3" d="M372.69,259.25c0,.56,0,1.12.06,1.7-17.08-11.83-33.37-17.62-48.47-19.32-5.33-20.29-7.8-45.84-4.38-77.65,19.44,1,40.55,6.47,58.12,21.39-8.51,29.18-8.9,53.74-5.35,73.79A.12.12,0,0,1,372.69,259.25Z" transform="translate(-225.63 -5.45)"/><path class="cls-3" d="M370.18,399.9a153.23,153.23,0,0,0,5.27,50.51C363.07,460.26,347,468.08,326,471.47a144.43,144.43,0,0,1,1.31-54.26C343.81,414,358.34,407.26,370.18,399.9Z" transform="translate(-225.63 -5.45)"/><path class="cls-3" d="M344.93,368.54a16.21,16.21,0,0,0,2.14.73,151.89,151.89,0,0,0-19.71,47.93,101.57,101.57,0,0,1-51.15-3.05,133.37,133.37,0,0,1,20.69-50.36c17.26,6.06,34.13,6.16,48.56,3.88Z" transform="translate(-225.63 -5.45)"/><path class="cls-3" d="M324.28,241.63c5.56,21.1,14.19,36.54,22.51,47.44a99.69,99.69,0,0,0-47.75,13.86c-11-12.31-21-28.86-28-51.19C286,244.29,304.09,239.33,324.28,241.63Z" transform="translate(-225.63 -5.45)"/><path class="cls-3" d="M299.05,302.93a107.78,107.78,0,0,0,34.55,25.88,125.67,125.67,0,0,0-36.71,35,99.19,99.19,0,0,1-36.69-23.3C269.69,326.61,282.41,312.76,299.05,302.93Z" transform="translate(-225.63 -5.45)"/></svg>