<svg id="Layer_1" data-name="Layer 1" xmlns="http://www.w3.org/2000/svg" xmlns:xlink="http://www.w3.org/1999/xlink" viewBox="0 0 381 410.88"><defs><style>.cls-1{fill:#ffcf62;}.cls-2{fill:url(#linear-gradient);}.cls-3{fill:url(#linear-gradient-2);}.cls-4{fill:url(#linear-gradient-3);}</style><linearGradient id="linear-gradient" x1="223.65" y1="313.15" x2="490.87" y2="435.37" gradientUnits="userSpaceOnUse"><stop offset="0" stop-color="#f7931e"/><stop offset="0.64" stop-color="#c1272d"/></linearGradient><linearGradient id="linear-gradient-2" x1="298.83" y1="176.25" x2="497.99" y2="299.24" xlink:href="#linear-gradient"/><linearGradient id="linear-gradient-3" x1="410.71" y1="312.8" x2="590" y2="312.8" xlink:href="#linear-gradient"/></defs><title>bank mellat</title><circle class="cls-1" cx="191.75" cy="231.59" r="64.75"/><path class="cls-2" d="M464.13,336.06a79.59,79.59,0,0,1-129.42-3.55l-70.92,42.55V225.64L209,260.5V400L323.55,464.7l179.29-99.61Z" transform="translate(-209 -56.31)"/><path class="cls-3" d="M393.27,56.31,283.71,131V345.17l42.79-28.52a79.51,79.51,0,0,1,66.78-108.06V126l124.51,74.71V136Z" transform="translate(-209 -56.31)"/><path class="cls-4" d="M410.71,158.41V208.9a79.44,79.44,0,0,1,64.57,107l64.92,41.73L425.65,432.33l49.8,34.86L590,397.47V268Z" transform="translate(-209 -56.31)"/></svg>