<svg id="Layer_1" data-name="Layer 1" xmlns="http://www.w3.org/2000/svg" viewBox="0 0 479.3 419.15"><defs><style>.cls-1{fill:#b01117;}.cls-2{fill:#00aec5;}</style></defs><title>Gardeshgari bank</title><polygon class="cls-1" points="430.93 121.73 356.45 0 300.44 1.5 378.76 129.5 293.83 286.69 226.46 286.51 257.17 336.71 399.73 335.73 479.31 200.8 450.13 153.11 375.29 281.69 345.51 280.94 430.93 121.73"/><polygon class="cls-1" points="215.77 418.31 358.47 417.01 385.99 368.2 235.92 369.57 144.77 215.91 179.56 158.21 120.71 158.75 48.26 281.53 123.08 419.15 178.99 418.64 107.18 288.35 123.13 263.19 215.77 418.31"/><circle class="cls-2" cx="455.78" cy="278.59" r="52.97" transform="translate(-52.65 656.69) rotate(-88.49)"/><polygon class="cls-1" points="68 83.42 0 208.89 29.37 256.6 100.87 124.66 279.45 119.37 313.08 177.75 341.12 126.01 268.81 3.15 112.17 1.93 85.53 51.08 234.3 51.38 248.58 77.53 68 83.42"/></svg>