<svg id="Layer_1" data-name="Layer 1" xmlns="http://www.w3.org/2000/svg" viewBox="0 0 255.39 294.28"><defs><style>.cls-1{fill:#fefefe;}.cls-2{fill:#fdfbf2;}.cls-3{fill:#f0c649;}.cls-4{fill:#fefdfb;}.cls-5{fill:#f7e09a;}.cls-6{fill:#f7e09b;}.cls-7{fill:#f7e09c;}.cls-8{fill:#f7e09d;}.cls-9{fill:#f0c84c;}.cls-10{fill:#f6de94;}.cls-11{fill:#fcf7e8;}.cls-12{fill:#f5db8c;}.cls-13{fill:#fcf5df;}.cls-14{fill:#efc139;}.cls-15{fill:#efc23d;}.cls-16{fill:#efc23b;}.cls-17{fill:#efc23a;}.cls-18{fill:#fdf8eb;}.cls-19{fill:#fefdfa;}.cls-20{fill:#efc33d;}.cls-21{fill:#f7e2a4;}.cls-22{fill:#fefcf7;}.cls-23{fill:#f0c441;}.cls-24{fill:#fefcf8;}.cls-25{fill:#f0c442;}.cls-26{fill:#f1c951;}.cls-27{fill:#f0c74b;}.cls-28{fill:#fdfbf3;}.cls-29{fill:#fbf0d2;}.cls-30{fill:#fbf2d9;}.cls-31{fill:#f0c74d;}.cls-32{fill:#f0c74a;}.cls-33{fill:#fcf4dc;}.cls-34{fill:#f2ce61;}.cls-35{fill:#f0c545;}.cls-36{fill:#faedc7;}.cls-37{fill:#fcf7e7;}.cls-38{fill:#fefefc;}.cls-39{fill:#fcf4df;}.cls-40{fill:#fbf3db;}.cls-41{fill:#f8e4aa;}.cls-42{fill:#f1ca56;}.cls-43{fill:#fbf3da;}.cls-44{fill:#f0c546;}.cls-45{fill:#f4d579;}.cls-46{fill:#f2cc5b;}.cls-47{fill:#f8e5ae;}.cls-48{fill:#fcf6e4;}.cls-49{fill:#f2cd5f;}.cls-50{fill:#fefdfc;}.cls-51{fill:#fefefd;}.cls-52{fill:#fdfbf6;}.cls-53{fill:#fdfbf5;}.cls-54{fill:#fefcf9;}.cls-55{fill:#fdfcf7;}.cls-56{fill:#fdfcf6;}.cls-57{fill:#fdfbf4;}.cls-58{fill:#fdfaf1;}.cls-59{fill:#f0c74c;}.cls-60{fill:#f0c64a;}.cls-61{fill:#f1c84f;}.cls-62{fill:#f1c952;}.cls-63{fill:#f0c23e;}.cls-64{fill:#f1c74d;}.cls-65{fill:#f2cf64;}.cls-66{fill:#f1ca54;}.cls-67{fill:#efc341;}.cls-68{fill:#f1cb57;}.cls-69{fill:#efc340;}.cls-70{fill:#f1ca57;}.cls-71{fill:#f1c850;}.cls-72{fill:#f2ce63;}.cls-73{fill:#f3d06a;}.cls-74{fill:#f2cd60;}.cls-75{fill:#f2cf65;}.cls-76{fill:#f0c547;}.cls-77{fill:#f5da87;}.cls-78{fill:#f1cb58;}.cls-79{fill:#f3d372;}.cls-80{fill:#f1c953;}.cls-81{fill:#fbf4dd;}.cls-82{fill:#fdf9ee;}.cls-83{fill:#fdfaf2;}.cls-84{fill:#fcf8e9;}.cls-85{fill:#fcf6e5;}.cls-86{fill:#fefcf6;}.cls-87{fill:#fcf5e1;}.cls-88{fill:#fcf7e5;}.cls-89{fill:#fdfaf0;}.cls-90{fill:#fbf2d8;}.cls-91{fill:#fcf4dd;}.cls-92{fill:#fbf1d5;}.cls-93{fill:#fbf2d7;}.cls-94{fill:#f3d373;}.cls-95{fill:#faeecb;}.cls-96{fill:#f5dc8e;}.cls-97{fill:#f5da88;}.cls-98{fill:#f6dc91;}.cls-99{fill:#f9e8b5;}.cls-100{fill:#f1cc5a;}.cls-101{fill:#fbf2d6;}.cls-102{fill:#f1c74c;}.cls-103{fill:#f0c444;}.cls-104{fill:#f0c341;}.cls-105{fill:#f4d475;}.cls-106{fill:#f5d986;}.cls-107{fill:#fbf1d3;}.cls-108{fill:#f6de93;}.cls-109{fill:#f3cf66;}.cls-110{fill:#f1ca55;}.cls-111{fill:#f4d577;}.cls-112{fill:#f5d985;}.cls-113{fill:#f6de95;}.cls-114{fill:#f8e6b0;}.cls-115{fill:#f4d77f;}.cls-116{fill:#f7e3a8;}.cls-117{fill:#f7e1a1;}.cls-118{fill:#f6dd92;}.cls-119{fill:#f7e2a3;}.cls-120{fill:#fdf9ed;}.cls-121{fill:#f6dc90;}.cls-122{fill:#fbf0d0;}.cls-123{fill:#fcf4de;}.cls-124{fill:#f8e7b2;}</style></defs><title>pasargad bank</title><path class="cls-1" d="M346,412q0-139-.12-278c0-4.27.93-5.71,5.14-5a37.45,37.45,0,0,0,6,.05,3,3,0,0,1,.6,1.69c-.27,2.21.56,3.49,2.93,3.64,1.5.09,3,.12,4.49.12q67,0,134,0c2.89,0,6.1.78,8.37-2,.87-1,0-2.36.62-3.44,29.66,0,59.33.07,89-.1,3.43,0,4.1.68,4.1,4.1q-.18,142-.1,284a1,1,0,0,1-1.4-.15c-1.21-2.87-3.47-3.59-6.42-3.53-3.63.08-7.29.35-10.9-.3a4.05,4.05,0,0,1-1.3-.7,1.64,1.64,0,0,1-.19-1.34c1.1-1.25,3-.8,4.14-1.87.3-.3.63-.57.95-.85.5-.41,1.06-.73,1.57-1.1-1.51-7-11.5-15-18.29-14.62a6.09,6.09,0,0,0-2.43.5c-5.9,3-12.16,2.61-18,.8-12.41-3.81-25.36-3.13-38-5.28-4.91-.84-9.81-1.77-14.7-2.7a17,17,0,0,0-9.77,1c-7.9,3.18-9.3,12.26-2.7,17.57a27.25,27.25,0,0,0,10.37,4.73c5.21,1,10.47.17,15.68.48,2,.12,4.39-.52,5.57,2-1.17,1.87-3.11,1.72-4.89,1.75-7,.11-13.93.21-20.89,0-9.26-.29-17.58-8.13-18.79-17.44,0-1.1.07-2.2.07-3.3,0-.52,0-1.05,0-1.58a12.19,12.19,0,0,1,1.16-4.47,9.19,9.19,0,0,1,2.75-3.62c3.87-2.58,8.26-3.82,12.7-4.9,2.91-.75,5.62.55,8.44.8,4.62,1.25,9.12,3.08,14.06,2.83,6-.3,8.79-3.82,7.27-9.61-1.6-6.06-6.16-9.67-11.3-12.56-2.88-1.62-6-2.9-8.92-4.37-2.29-1.13-5-2.11-5.33-5.33a1.93,1.93,0,0,1,1.7-1.41c8.1,2.54,16,5.7,22.86,10.7s9.38,12.3,8.07,20.71c-.54,3.48.57,4.89,4.14,4.83a51.5,51.5,0,0,1,13.79,1.86c3.41.89,4.88-.11,4.34-3.54-2.28-14.62-2.25-29.46-4.36-44.09-.51-3.51-1.29-6.42-5.11-7.67a3.78,3.78,0,0,1-2.5-3.45c-.33-2.52,1-3.79,3.27-4.43,1.13-.34,2.83-.71,3.29.12,3.15,5.59,5.3,1.61,7.68-.63a2.08,2.08,0,0,1,1.35-.1c4.82,3.75,6,3.4,8.14-2.43a19.14,19.14,0,0,1,.94-2.24,12.4,12.4,0,0,1,1.89-2.67c1.78-2.22-1-1.7-1.54-2.51-.57-.33-1.11-.71-1.65-1.09-.92-1-3.58-.56-2.77-3.13a5.33,5.33,0,0,1,3.39-.87c7.63,1.22,7.63,1.22,9.16-4.43a7.7,7.7,0,0,0-.53-2.57c-1.38-2.78-2.45-6.07-6.35-5.88-3.25.16-7.31,5.32-8.26,10a4.84,4.84,0,0,1,.14,1.36,3.3,3.3,0,0,1-.49,1.27c-1.25,1.53-3.22,1.51-4.82,2.27-2.35.94-2.85,3.13-3.53,5.21a2,2,0,0,1-2.42,1.35c-6.82-8-7.56-17.34-5.88-27.18a16.89,16.89,0,0,1,.49-3.21,11.17,11.17,0,0,1,1.9-3.45c6.25-8.43,14.82-8.54,21.34-.24.31.39.14.95,0,1.42a2,2,0,0,1-1.89.93c-2.54-1.11-5.32-1.51-7.85-2.67a4.08,4.08,0,0,0-5.28,1.09c-.35,1-2.26,1-1.79,2.6a3.4,3.4,0,0,1-.39,1.17c-1.08,2.25-1.36,4.4.7,6.29,1,.83,2.5.8,3.47,1.75.81,1.5-.14,2.46-1,3.47s-2,2.21-.4,3.29c1.35.89,2.49-.25,3.35-1.27,1.88-2.23,2.19-5.11,3.06-7.76a5.31,5.31,0,0,1,3.83-3.34c2.19.29,4.32,1.06,6.57.93a17.68,17.68,0,0,1,8.9,5c-.54-3.65-4.24-2.73-6.15-4.38a10.71,10.71,0,0,0-4.68-.85c-3.18,0-3.44-1.65-2.11-4.06a9.12,9.12,0,0,1,1.28-1.73c.36-.36.82-.88.64-1.26-1.65-3.63-5.73-4.19-8.41-6.55-3.34-2.93-6.31-1.87-9.08,1.08-2.09,2.23-4.47,1.62-6.81.32-1.29-.72-2.39-1.83-4-1.93a4.23,4.23,0,0,0-4.57,5.69c.37,1.26,1.14,2.41.84,3.82a1.85,1.85,0,0,1-1.7,1.19c-4.37-2.46-6.28-6.17-4.9-9.56,1.6-3.94,8.24-6.92,12.74-5.71a12.3,12.3,0,0,1,1.4.53c1.46.59,2.73,2.17,4.54.89.43-.3.81-.82.55-1.26-1-1.68-2.86-1.52-4.41-1.76-10.9-1.65-19.66,3-26.77,10.45-13.72,14.46-23.48,30.94-23.66,51.7,0,1.62.14,3.39-1.55,4.49a1.67,1.67,0,0,1-1.43-.69c-2.16-3.16-2.53-6.74-2.78-10.46-.93-14.14,2.4-27.84,4.37-41.64,1.89-13.16,4.15-26.28,6.29-39.41,2.27-14,4.5-27.94,6.44-41.95,0-1.23.52-2.59-.9-3.46a10.33,10.33,0,0,0-2.5-.24c-41.57,0-83.14-.1-124.68.08a1.58,1.58,0,0,0-1.29,1.38,16.66,16.66,0,0,0,.18,2.12c4.26,24.28,7.76,48.67,11.84,73,3.36,20,6.24,40.12,9.62,60.13,3.19,18.89,8.74,36.91,21.41,52A60.91,60.91,0,0,0,443.47,408a26.19,26.19,0,0,1,3.83,1.16c1,1,4.29.87,1.86,3.64-2,.93-4.23.8-6.38.8q-44.84,0-89.69,0a16.12,16.12,0,0,1-5.43-.55A6.53,6.53,0,0,1,346,412Z" transform="translate(-345.88 -128.78)"/><path class="cls-2" d="M600,417H601c-1.23,1.88,3,6.48-3,6-2.17-3-5.3-1.22-8-1.6q-116.58,0-233.12,0a24.76,24.76,0,0,1-6.46-.39,3.55,3.55,0,0,1-1.6-1.16,1.62,1.62,0,0,1,.92-1.61c3-1.3,6.23-.85,9.36-.85q101.79,0,203.58,0C575.12,417.32,587.59,417.65,600,417Z" transform="translate(-345.88 -128.78)"/><path class="cls-3" d="M367,423h-3a45,45,0,0,0-15,0h-1c-.81-1.44-1.14-2.71,1-3.14l-.07.29c1.94.71,4,.35,5.94.35q90.2,0,180.39,0a3.07,3.07,0,0,1,1.81.42,1.07,1.07,0,0,1-.67,1.46c-3.65.19-7.31,0-11,.08-9.89,0-19.78,0-29.68,0-1.61,0-3.3-.46-4.83.49h-2c-1.71-1-3.58-.49-5.36-.49q-50.51-.05-101,0C377.41,422.74,372.17,421.85,367,423Z" transform="translate(-345.88 -128.78)"/><path class="cls-4" d="M508,129l1.9,2.2c-3.74,1.52-7.59.37-11.37.37q-66.42.13-132.85,0c-2.93,0-6,.66-8.63-1.5l0-1.1Z" transform="translate(-345.88 -128.78)"/><path class="cls-5" d="M382,422.06q51.66,0,103.33-.07c1.28,0,2.71-.37,3.65,1H382q-.49-.31-.32-.61C381.78,422.16,381.89,422.06,382,422.06Z" transform="translate(-345.88 -128.78)"/><path class="cls-6" d="M491,423c1.1-1.48,2.71-1,4.14-1,10.28,0,20.56,0,30.84.06q.51.3.35.61c-.11.21-.22.32-.33.32Z" transform="translate(-345.88 -128.78)"/><path class="cls-7" d="M568,423H537q-.5-.33-.32-.63c.12-.2.23-.3.35-.3l-.06-.13c1.92-1.4,4.14-1,6.24-.91,8.07.17,16.16-.53,24.22.39A1.11,1.11,0,0,1,568,423Z" transform="translate(-345.88 -128.78)"/><path class="cls-8" d="M568,423q0-.44,0-.89c2.62-2.09,5.68-.94,8.52-1.05,4.41-.18,8.84-.1,13.26,0a4.87,4.87,0,0,1,1.77.42A1.08,1.08,0,0,1,592,423Z" transform="translate(-345.88 -128.78)"/><path class="cls-9" d="M592,423q0-.45-.06-.9a1.23,1.23,0,0,1,.1-1.87l4.75-.17c3.08-.12,1.91,1.51,1.22,2.94Z" transform="translate(-345.88 -128.78)"/><path class="cls-6" d="M349,423a23.43,23.43,0,0,1,15,0Z" transform="translate(-345.88 -128.78)"/><path class="cls-10" d="M382,422.06q0,.45,0,.91H367C371.89,420.78,377,422.44,382,422.06Z" transform="translate(-345.88 -128.78)"/><path class="cls-11" d="M349,419.82c-1.5.66-1,2-1,3.14-.63-.41-2.1,1-2-1,.07-1.66,0-3.33,0-5a1.06,1.06,0,0,1,1.13-.34,3.09,3.09,0,0,1,1.88,2.46Q349,419.45,349,419.82Z" transform="translate(-345.88 -128.78)"/><path class="cls-12" d="M537,422q0,.46,0,.93H526q0-.46,0-.93Z" transform="translate(-345.88 -128.78)"/><path class="cls-13" d="M346.93,417H346v-5l1.22.13A3.5,3.5,0,0,1,346.93,417Z" transform="translate(-345.88 -128.78)"/><path class="cls-14" d="M346.93,417l.29-4.87,93.47-.15c3,0,6-.07,9-.11,1.12-.7,2.35-.25,3.53-.36,5.69.15,11.41-.31,17.09.12-5.58-.15-11.17-.15-16.76-.15-2.37.07-4.49-1.14-6.81-1.34-22.8-4.36-38-18.06-48-38.48-6.46-13.12-9.83-26.95-11.86-41.31-1.76-12.47-4.28-24.83-6.26-37.28-3-18.65-5.73-37.33-8.65-56-1.87-11.95-3.87-23.87-5.82-35.81,2.37-2.53,5.5-1.34,8.31-1.68q57.94,0,115.88,0c2.61,0,5.38-.56,7.67,1.37-1.21,12.19-3.36,24.25-5.28,36.34-2,12.58-3.82,25.18-5.8,37.76-1.51,9.63-3.12,19.25-4.74,28.86-1.81,10.74-2.44,21.43.95,32,1.8,1,2.13,3.17,3.51,4.51,1.77,1.25.69,4.19,3,5.09.76,1.53,1.84,2.91,2.15,4.65,3.93,4,9.51,5.11,14.16,7.85,5.77,3.4,11,7.31,12.71,14.34,1.38,5.81-1.82,10.17-7.82,10.72-5.25.48-10-1.49-14.87-3.06-2.1-.71-4.36-1.22-4.92-3.88-3.82-7.83-4.62-16.56-7.52-24.73-5.33-15-12.14-29.06-22-41.65-5.52-7.06-10.91-14.24-14.95-22.34a76.69,76.69,0,0,1-3.73-9.75,7.5,7.5,0,0,1-.61-3.62c.4-1.95,1.16-3.8,1.59-5.74.95-4.3-.59-6.51-5-7.31-2-.36-3.23.24-3.56,2.33a13.58,13.58,0,0,1-.68,3.9,1.51,1.51,0,0,1-1.75.88,4.1,4.1,0,0,1-1.1-3.15c0-4-2.14-5.15-5.72-4.51s-4.92,2.67-4,6.79c.25,1.11.75,2.18.39,3.36a1.71,1.71,0,0,1-1,.89c-1.76.19-2.61-1-3.54-2.21-2.61-3.32-3.5-3.17-5.83.26-1.5,2.21-.81,4.38-.59,6.63a2.87,2.87,0,0,1-1.22,1.65c-3.58,4.44-2.22,9.54,3.7,13.87a2.71,2.71,0,0,1,.63,1.93c-1.47,4.42,1,5.94,4.8,6.39.91.28,1.74.66,1.82,1.79-1.94,2.23-2.76,4.41.36,6.35,1.49.89,3.76.79,4.07,3.18-.4,5,3.25,4.77,6.53,5a1.85,1.85,0,0,1,1.15,1.6c-1.93,4-.09,5.81,3.84,6.32a2.38,2.38,0,0,1,1.46,2.19c-.38,2.24-.21,4.29,2,5.65,1.19.91,3.05.8,3.74,2.46,0,2.18.14,4.26,2.23,5.6,1,.82,2.51,1.11,2.78,2.67-1.57,3.83,1.66,5,3.76,6.86a2.79,2.79,0,0,1,.4,1.29c-.37,2.44-.54,4.83,1.83,6.51a3.93,3.93,0,0,1,1.26,2.38c-.67,2.38-1,4.7,1.17,6.58a5.41,5.41,0,0,1,.9,2.55c-.63,3.08.11,5.53,3.17,6.93.77.52,1.55,1,1.32,2.15-4.9,3.36-4.9,3.59.05,7.77a2.19,2.19,0,0,1,.05,1.36c-.08.14-.18.28-.26.43-.81,1.6-4.21,2-2.62,4.58,1.43,2.3,3.86,1.12,5.9.56,2.56-.7,5-1.27,5.63,2.43.41,8.31,9,16.76,17.13,16.77,8.62,0,17.25-.08,25.87-.13,1.82-1.6,4.06-1.23,6.17-1.24q26.85-.06,53.7,0c2.13,0,4.35-.27,6.2,1.23,4.42.05,8.87.4,13.26.07,4-.31,6.21.72,5.8,5.09-1.21,2.73-3.65,1.82-5.68,1.82q-105.7.08-211.4.1c-11.32,0-22.64.14-34,.21Z" transform="translate(-345.88 -128.78)"/><path class="cls-14" d="M372.11,178.08a11.65,11.65,0,0,1-1,2.27c-1.61,2.26-3,5.67-6,5.26s-2.13-4.11-2.51-6.35c-2-12.09-3.65-24.25-5.78-36.32-.67-3.78.69-4,3.78-4q55.74.13,111.47,0c10.66,0,21.33.06,32,0,2.86,0,3.71.23,3.37,3.83-1.24,13.07-4.54,25.8-5.92,38.83-.14,1.35.49,3.73-1.69,4.23s-4-.77-5.68-2.35-2.22-3.64-3.39-5.41c-2.31-2.16-.28-3.87.56-5.71,3.69-5.54,3.15-12.35,5.44-18.32.49-1.29-.5-2.52-1.85-3.14a5.05,5.05,0,0,1-1.5-1.2,2.67,2.67,0,0,0-2.51-1.26,12.77,12.77,0,0,1-2.11-.9c-.88.25-1.1,1.18-1.74,1.66a9.14,9.14,0,0,0-5.8,1.45c-1.41.49-2.61,1.55-1.87,2.94,3.06,5.77,1.92,12.81,5.72,18.32,3.44,4.91.75,12.95-5.23,14.76-8.52,2.58-17.15.49-18.88-10a5.71,5.71,0,0,1,.08-1.56,4.88,4.88,0,0,1,.55-1.41c3.58-3.89,3.79-9.08,5.27-13.78a40.81,40.81,0,0,1,1.83-5.67c1-2.19-.16-3.24-2.13-3.8-1.32-.62-2.08-2-3.55-2.44-.75-.28-1.46-.65-2.22-.9-1.26-.33-1.63.72-2.22,1.43a2,2,0,0,1-1.64.79c-1.74-.52-2,1.28-3,1.92-1.77,0-4,.4-2.93,2.58,3.19,6.61,1.83,14.89,7.6,20.51.06,11-9.09,16.13-20.63,11.52a11.63,11.63,0,0,1-5-7.87,7.68,7.68,0,0,1,.26-3.83c3.93-7.05,5.35-14.84,6.63-22.65-.51-1.52-2-1.89-3.16-2.59s-2.83-.11-4.1-.84c-3.34-2.5-.62,2.36-2.29,1.89a1.63,1.63,0,0,1-1.26.35c-1-.46-1.81-1.28-3-.74-.76.3-1.56.49-2.31.78-1.38.77-.91,2.06-.89,3.22,2,7.19,2.37,14.93,6.95,21.3a5.69,5.69,0,0,1,.28,1.52c-1.75,7.77-5.29,11-12.68,11.47-5.89.4-10.71-3.44-13.24-10.53a5.94,5.94,0,0,1,.93-3.76c4.43-5.57,3.81-12.87,6.51-19,.58-1.1.9-2.2,0-3.33a10.35,10.35,0,0,0-.92-.82c-.93-.56-1.83-1.14-2.79-1.59-.87-.13-1.4.52-2,.94-1.08.66-2,.61-2.65-.6-1.54-2.84-3.59.52-5.27-.41-1.07.3-1.42,1.41-2.24,2-1.14.8-2.31,1.92-1.7,3.27,3,6.56,2.22,14.52,7.56,20.19a5.67,5.67,0,0,1,.15,3.79c-4.48,9.75-10.65,12.07-20.76,7.82a15.61,15.61,0,0,1-5.09-8.53,6.7,6.7,0,0,1,.16-2.29,5.26,5.26,0,0,1,.62-1.35c4.44-6.31,4.74-13.9,6.48-21-.49-2-2.87-.76-3.74-2.11s-1.69-.65-2.6-.16a1.63,1.63,0,0,1-1.17-.34c-1,0,.26-2.73-1.75-1.36-.61,2.7-4-.21-4.69,2.4-3.06,0-4.57,1.12-3.08,4.35,3.22,5.95,2.27,13.32,6.55,18.9A3.58,3.58,0,0,1,372.11,178.08Z" transform="translate(-345.88 -128.78)"/><path class="cls-14" d="M489,346.09,486,340.88c-1.26-1.4-1.49-3.19-1.89-4.92-.69-26.87,11.21-47.46,32.1-63.29,7-5.34,15.38-5.76,23.82-3.61,1,.25,2.61.42,2.33,2s-1.61,2.89-2.91,3.94c-.86.7-1.51.47-2.51-.32a10.29,10.29,0,0,0-13-.11c-3.82,2.9-3.1,7.09,2,11.49,3.33,1.26,3.15,3.24,1.39,5.81-3.88,5.68-3.84,5.72.12,11.36.39.55,1,1.25.61,1.74-2.15,2.48-.59,5.14-.8,7.67-.61,7.36,4.09,10.83,8.73,14.65-1.59,3.45,1.71,3.33,3.09,3.44,3,.25,3.83,1.48,4.1,4.33,1.47,15.83,3.19,31.64,4.75,47.47.69,7,.57,6.84-6.46,5.27a59.5,59.5,0,0,0-15.76-1.84c-2.22.1-3.84-.13-3.34-3.28,2.28-14.23-1.39-20.88-14.39-26.82-5-2.26-9.86-4.63-14.79-6.95C491.37,348.49,490.26,347.2,489,346.09Z" transform="translate(-345.88 -128.78)"/><path class="cls-14" d="M493,410.07c-6.33-1.4-12.45-3.5-14.64-10.33-2.83-8.85,5.43-17,15.78-15.45,8.69,1.31,17.3,3.19,26.06,4.08,5.77.59,11.55,1.36,17.34,1.5s10.7,3.3,16.46,3.59c4.11.21,7.91.11,11.58-1.66,2.05-1,4-.88,6.21-.49,9,1.56,13.18,8.82,18.24,15,.53.65,1.05,1.45.13,2.15-1.2.9-2.17-.15-3.21-.54-1.31-.61-.53.81-1,1a1.51,1.51,0,0,0-.1.72c-1.37,1.69-3.52,0-5,1.17v0c-11.37.68-22.76,0-34.13.22-17.27.28-34.53-.62-51.8-.59A4.12,4.12,0,0,1,493,410.07Z" transform="translate(-345.88 -128.78)"/><path class="cls-14" d="M489.89,181.21c1.08,4.22,4.76,5.76,8.06,7.55,1.37.74,2.21,1.4,1.9,3s-1.59,1.4-2.74,1.53c-10.07,1.12-20.16.23-30.24.34-7.76.09-15.53.37-23.28.07-16.23-.63-32.46.25-48.7-.09-8.21-.17-16.54-.61-24.8.24a15.28,15.28,0,0,1-3-.09,3.1,3.1,0,0,1-2.85-2.4c-.49-1.69.68-2.39,1.91-3,3.16-1.61,5.85-3.65,6.86-7.28.71-.83.38-2.52,2.09-2.51,2.8,1.59,2.83,5.35,5.53,7,9.14,4.5,14.62,3,20.3-5.42a2.58,2.58,0,0,1,1.85-1.43,4.9,4.9,0,0,1,2.59,2.21c7.87,10.38,17.83,9.65,24.24-1.77,1.73-1.11,2.65.31,3.76,1.18,1.15,2,2.31,4,4.31,5.31,8.14,4.32,14.42,2.85,19.62-4.62a5.89,5.89,0,0,1,2.51-2.32,2.14,2.14,0,0,1,1.42.22c3.76,8.6,9.7,9.53,15.89,8.75,4.27-.54,6.68-3.25,8.73-6.64C487.21,178.76,488.75,177.36,489.89,181.21Z" transform="translate(-345.88 -128.78)"/><path class="cls-15" d="M357,130.1q72.48.1,145,.17a26.21,26.21,0,0,1,7.9.93c-.79,3.09-1.9,5-6,4.94-47.9-.2-95.79-.12-143.69-.15-1.88,0-4.13.7-5.09-1.92C354.41,132.07,355.4,130.94,357,130.1Z" transform="translate(-345.88 -128.78)"/><path class="cls-16" d="M475,383.86l-2.13,3.05c-1.3.47-1.82-.7-2.65-1.23a3.17,3.17,0,0,1-.74-1.06,4.23,4.23,0,0,1-.13-1.31c.38-2.79,1.43-5.56.08-8.37a5.36,5.36,0,0,1-.15-1.37A15,15,0,0,0,469,366c-.18-.93-.26-1.87-.37-2.81-.29-1.85-.75-3.68-1-5.54-.13-.91-.43-1.78-.6-2.67a13.11,13.11,0,0,0-3.34-7.77c-.54-2.57-.62-5.3-2.45-7.45-.43-.76-.83-1.55-1.23-2.33-.9-2.19-2.6-3.86-3.84-5.82a8.91,8.91,0,0,0-2.63-3.3,30.46,30.46,0,0,0-3.86-4.06,19.23,19.23,0,0,1-1.75-2.76c-1.09-1.67-2.36-3.2-3.58-4.77a22.89,22.89,0,0,1-3.09-3.4,21.77,21.77,0,0,0-3.71-4.59,18.12,18.12,0,0,1-3.19-3.22c-1.51-1.82-3.3-3.38-4.91-5.11a22.33,22.33,0,0,1-1.63-2.12c-1.47-3-5.48-4.44-5.47-8.44,1.09-2.88-1-6,.74-8.87.65-.94,1.49-1.72,2.22-2.59a15.46,15.46,0,0,1,4.06-3.4,34,34,0,0,1,4.77-2.67,3.66,3.66,0,0,1,2.17,0,2.41,2.41,0,0,1,1.38,1.72c.18,1.84-1,2.81-2.3,3.75-8.77,5.06-9.39,9.73-2.95,17.38,7.49,8.89,15.86,17,23.1,26.1,8.68,10.92,15.62,22.79,18.19,36.66a143.72,143.72,0,0,1,2,23.78A2.93,2.93,0,0,1,475,383.86Z" transform="translate(-345.88 -128.78)"/><path class="cls-17" d="M548.67,323c.17,3.45-2.36,4.28-4.93,4.89-1.47.35-3.13.42-2.73-2,.55-3.33-1.82-1.59-3.08-1.78-2.62.47-5.45,1.2-3.92-3.29.46-1.34-.27-1.77-1.46-1.89-3.54-.38-3.64-2.22-2-4.77.7-1.08,1.18-2.13-.55-2.69-3.25-1-3-3.14-1.56-5.45,1.16-1.93,1.23-3.35-1.24-4.2-2.11-.72-2.38-2.57-2.39-4.47,0-5.81,6.76-10.41,12.07-8.18-2.31,9.68-.15,18.53,5,26.8,1.91.61,2.91,2.31,4.3,3.54C547.08,320.68,548.52,321.41,548.67,323Z" transform="translate(-345.88 -128.78)"/><path class="cls-18" d="M498,201l-117.12-.07c-2.32,0-4.64-.13-7-.2-.91-.48-2.3.23-2.86-1-.48-1,.57-1.16,1.17-1.52,15.16-.43,30.31-.1,45.47-.18,26.15-.13,52.3.18,78.45-.15a3.44,3.44,0,0,1,2.79,0Z" transform="translate(-345.88 -128.78)"/><path class="cls-19" d="M536.89,289.19c-4.95-1.28-7.69,2.32-10.36,5.22-2.15,2.33-.41,5.66,2.86,6.6,4.38,1.26,1.33,3.75.45,5.15-1.77,2.81-3,4.18,1.93,4.31,3.87.1,1.52,2.48.49,4-.67,1-2.82,1.47-1.85,3,.72,1.12,2.41.72,3.66.11a1.76,1.76,0,0,1,2,2.87c-3.77,3.44-.94,3.55,1.84,3.69-.82,1-3.25.86-2,3.13-2.95-1.08-8,.07-6.32-6,.19-.71-1.32-.84-1.86-1.34-1.83-1.67-5.59-3.06-1.38-6.18.91-.67.3-1.59-.33-2.09-3.87-3.06-1.48-4.93,1.9-6.91-2.29-1.82-5.43-2.38-5.25-6a10.39,10.39,0,0,1,3.5-7.42c2.31-2.14,1.29-3.62-.3-5.29l1.14-1.11a60.53,60.53,0,0,1,10,1Z" transform="translate(-345.88 -128.78)"/><path class="cls-16" d="M537,286c-3.56,1.86-6.82.9-10-1-3.55-6.93-3.07-8.59,2.45-10.37,2.57-.83,4.16.28,5.76,1.78,2.39,2.25,4.39,2.39,6.63-.4,3.09-3.85,6.76-3.8,10.25-.51,2.4,2.27,5.75,3.22,7.76,6.08,1.2,1.72.15,1.92-.92,2.43l.08.08C552,274.21,544.74,274.85,537,286Z" transform="translate(-345.88 -128.78)"/><path class="cls-18" d="M493,410.07q41.73.13,83.46.29a42.64,42.64,0,0,1,4.41.46,6.27,6.27,0,0,1,.12,1l-66.08,0c-4.82-1.77-9.82-.34-14.7-.84C497.8,410.73,495.22,411.82,493,410.07Z" transform="translate(-345.88 -128.78)"/><path class="cls-16" d="M498.93,197.9l-1.9.29c-1.79.54-3.64.28-5.46.28-38.76,0-77.53.08-116.29-.11-3.29,0-6.88,2.48-10-.61,2.73-1.83,5.81-.86,8.69-.87q60.21-.13,120.43,0C495.93,196.88,497.76,196.06,498.93,197.9Z" transform="translate(-345.88 -128.78)"/><path class="cls-20" d="M552,305.15a12,12,0,0,1-1.42-1c2-4,4-8.08,8.23-10.14,4.45-2.14,7.79.42,9.32,7C564.73,305.11,557.08,307.08,552,305.15Z" transform="translate(-345.88 -128.78)"/><path class="cls-21" d="M365.28,197.75c4.65.08,9.31.24,14,.24q55.41,0,110.82,0c2.33,0,4.65.15,7,.23-1.6,1.35-3.52.72-5.28.73q-60.35.13-120.71.18a4,4,0,0,1-5-.13Z" transform="translate(-345.88 -128.78)"/><path class="cls-22" d="M489.89,181.21c-1.42-2.47-2-1.79-3.21.41-4.61,8.27-13.71,10.13-21.41,4.67a9.83,9.83,0,0,1-4.5-7.25c-.48-1.3-1.17-2.68,1.14-2.88,3,9,7.28,11.58,16.24,9.81,3.47-.69,8.17-6.65,8.26-10.11.05-2-2.93-1.78-2.48-3.86,3-1.2,5.8-1.28,8.31,1.07-1.36,1.41-2.18,3-1.51,5C489.75,178.94,490.06,180.14,489.89,181.21Z" transform="translate(-345.88 -128.78)"/><path class="cls-23" d="M560.09,318.15l-1.27,4.24c-.66,2.21-1.9,4.18-4.29,4.26a4.55,4.55,0,0,1-4.72-3.64c-1.18-1.61-2.94-2.57-4.36-3.92-1.95-1.3-1.91-3.47-2.38-5.41.79-1.92.92-4.32,3.56-4.89.85-.39,1.37,0,1.76.72-.52,6.63.48,7.59,7.4,7.09a11,11,0,0,1,3.48-.13C560,316.8,560.53,317.25,560.09,318.15Z" transform="translate(-345.88 -128.78)"/><path class="cls-24" d="M558.86,316.9c-1.85,1.42-4.08,1.31-6.19,1.28-5.68-.07-7.39-3.15-4.63-8.07,2.12-1.64,4.25-3.23,6.94-1,.95,1.45,3.12.27,4,1.85-.6,1-1.62.75-2.51.9,1.18.07,2.32,1.12,3.53.12,1.13,1.12,5.46.6,2.07,4-.68.67-.15-2.55-1.34-.41A3.33,3.33,0,0,1,558.86,316.9Z" transform="translate(-345.88 -128.78)"/><path class="cls-24" d="M470,385a.47.47,0,0,0,.58,0c1.17.41.86,1.45,1,2.29-.28,1.49-1.54,3.06.33,4.39q0,1.69,0,3.39c-1-1.62-2.15-3-4.33-1.59a11.3,11.3,0,0,1-1.39.47c-3.2,1.47-6.43,1.76-7.83-2s2.73-3.66,4.62-5.07C465,385,467.2,384,470,385Z" transform="translate(-345.88 -128.78)"/><path class="cls-20" d="M552,293c-.24,3.37-1,6.59-3.55,9-1.55,1.48-3.52,2.81-5.55.52-1.87-2.11-.35-3.69,1.09-5.06.81-.77,2.06-1.09,2.27-2.42C547.61,292.87,549.18,291.25,552,293Z" transform="translate(-345.88 -128.78)"/><path class="cls-25" d="M568.85,303.3a3.26,3.26,0,0,1,0,1c-1.73,5.55-3,6.14-9.9,4.51-.94-.42-1.6-1-1-2.12a7.58,7.58,0,0,1,2.35-1.49C563.22,304.9,565.61,302.15,568.85,303.3Z" transform="translate(-345.88 -128.78)"/><path class="cls-26" d="M565,289.9c1.87.6,3.75,1.19,5.61,1.82,1.35.45,2.51,1.22,2,2.84-.36,1.17-.13,2.93-1.72,3.27-1.91.41-1.7-1.57-2.36-2.56-1.55-2.3-4-3.3-6.4-4.33C562.22,288.32,563.85,289.82,565,289.9Z" transform="translate(-345.88 -128.78)"/><path class="cls-27" d="M543.08,283a3.33,3.33,0,0,1,4.29-3c3.23,1.33,7.08,1.25,9.72,4a4,4,0,0,1-2.13,1.72,7,7,0,0,1-1.36.36,10.54,10.54,0,0,1-3.51-.09,4.81,4.81,0,0,1-1.27-.53C547.56,283,544.87,284.07,543.08,283Z" transform="translate(-345.88 -128.78)"/><path class="cls-28" d="M568.85,303.3c-3,.83-5.59,2.69-8.79,2.78-2.7.6-5.41,2.21-8.08-.08q0-.43,0-.85c5.78.19,11-1.81,16.13-4.15A2.15,2.15,0,0,1,568.85,303.3Z" transform="translate(-345.88 -128.78)"/><path class="cls-29" d="M552,293c-2.42-.78-3.67,1.8-5.74,2-1.46-.16-3.1.47-4.26-1,.79-1.16,2.18-1,3.26-1.58.36-.19.73-.38,1.09-.58,1.55-.8,2.18-2.59,3.67-3.46a7.84,7.84,0,0,1,3.29-.87c1.2.37,2.26.85,1.73,2.45A6.55,6.55,0,0,0,552,293Z" transform="translate(-345.88 -128.78)"/><path class="cls-30" d="M555,290l-1.87-2-.41-.52a1.4,1.4,0,0,1,.67-1.06c1.24-.43,2.53-.64,3.78-1a2.09,2.09,0,0,1,1.8.58c-.37,1.24-3,3.18,1,3,1.67-.06,3.55-.55,5,.93-1,.27-2.19-.06-2.88,1C559.62,291.42,557.33,290.51,555,290Z" transform="translate(-345.88 -128.78)"/><path class="cls-31" d="M475,383.86v-1.8c1.42-3.77,4.75-4.23,8.09-4.67,1.49.28,3.11.28,4.14,1.69Z" transform="translate(-345.88 -128.78)"/><path class="cls-32" d="M546,293c-1,1.79-2.66.91-4.06,1.08-2.94-2.73-3.76-5.45,0-8.16C543.49,288.16,544,291,546,293Z" transform="translate(-345.88 -128.78)"/><path class="cls-33" d="M546,293c-4.33-.66-4.52-3.67-4-7.07l-.06-.47c.71-1.58,1.45-.29,2.18,0,1,1,1.67,2.21,2.53,3.31,1.11,1.65.73,3.06-.69,4.3Z" transform="translate(-345.88 -128.78)"/><path class="cls-31" d="M558,307.08l1,1.72-4,.3c-2.44-.55-4.67.34-6.94,1l-1.4-1.31,5.27-1.89A8.22,8.22,0,0,1,558,307.08Z" transform="translate(-345.88 -128.78)"/><path class="cls-34" d="M543.92,286.05l-2-.63c-1.84-1.86,1-1.55,1.15-2.46,2.31-.29,5.3-2.58,5.89,2.05.37.75-.08,1.06-.69,1.28a8.24,8.24,0,0,1-2.23-.53A7.82,7.82,0,0,0,543.92,286.05Z" transform="translate(-345.88 -128.78)"/><path class="cls-35" d="M487.21,379.07c-1.4-.28-3,.3-4.21-.84,2.61-2.64,6.19-1.36,9.22-2.28.54,2,2.23,3,3.79,4.08Z" transform="translate(-345.88 -128.78)"/><path class="cls-36" d="M375,179l-2,2c-.22-1,.28-2.25-.92-3l-.22-4a1.26,1.26,0,0,1,1.1-.36c1.18.77,2.88.06,3.86,1.36l0,1.94C375.94,177.38,375.54,178.27,375,179Z" transform="translate(-345.88 -128.78)"/><path class="cls-37" d="M366,199l5,.13,2.87,1.62-7.79.55Z" transform="translate(-345.88 -128.78)"/><path class="cls-31" d="M560,312c-2.69,4.18-4.16-.89-6.34-.6,1.77-1,3.55-.48,5.32-.42Z" transform="translate(-345.88 -128.78)"/><path class="cls-38" d="M543.08,313.68,546,319a.79.79,0,0,1-.09,1.31c-2.07-.72-2.73-2.77-4-4.27C542.87,315.49,543,314.58,543.08,313.68Z" transform="translate(-345.88 -128.78)"/><path class="cls-39" d="M545.9,320.26,546,319c1.46,1.18,4.19,1.16,3.83,4.05l-1.15,0C547.5,322.36,546.2,321.81,545.9,320.26Z" transform="translate(-345.88 -128.78)"/><path class="cls-40" d="M489,346.09c2-.07,3.11,1.28,4.07,2.8l-1.27,1.29C490.55,349.05,489.07,348.06,489,346.09Z" transform="translate(-345.88 -128.78)"/><path class="cls-41" d="M558,307.08l-6.08-.18q0-.45.08-.89l8.08.08Z" transform="translate(-345.88 -128.78)"/><path class="cls-23" d="M559,285.94l-1.87.22c-1.06.27-2.22.73-2.12-1.14a2.26,2.26,0,0,1,2.13-1.09l1.91.1-.08-.08Q558.94,285,559,285.94Z" transform="translate(-345.88 -128.78)"/><path class="cls-42" d="M453,412l-3.3-.12-3-1.73c2.21-.64,4.18.53,6.26.86q.49.33.33.66T453,412Z" transform="translate(-345.88 -128.78)"/><path class="cls-43" d="M484.06,336c1.31,1.38,1.52,3.18,1.89,4.92-2.67-.66-1.93-3.28-2.83-4.95Z" transform="translate(-345.88 -128.78)"/><path class="cls-44" d="M470.8,387.76q-.12-1.33-.23-2.67c1.24,0,1.41,1.35,2.28,1.82l-1.1,3.88C469.6,390.34,470.73,388.89,470.8,387.76Z" transform="translate(-345.88 -128.78)"/><path class="cls-45" d="M470.8,387.76c.26,1-.1,2.25.94,3l.15,1C466.78,391.73,470.9,389.17,470.8,387.76Z" transform="translate(-345.88 -128.78)"/><path class="cls-46" d="M558.86,316.9c1.14-.07,1-4.77,3.22-.9l-2,2.15Z" transform="translate(-345.88 -128.78)"/><path class="cls-47" d="M586,409c-.12-1.19-2.65-2-1.23-3s1.58,1.15,2.22,2Z" transform="translate(-345.88 -128.78)"/><path class="cls-48" d="M580.87,410.86c1.43-1.43,3.45-.32,5-1.17C584.64,411.9,582.6,410.73,580.87,410.86Z" transform="translate(-345.88 -128.78)"/><path class="cls-49" d="M592,420.19l-.1,1.87-1-.16c-8.89-1-17.82-.17-26.73-.45-9.07-.28-18.16.59-27.21-.47q-90.87,0-181.73,0c-2.09,0-4.35.71-6.26-.82q72.11-.06,144.22-.1Q542.6,420,592,420.19Z" transform="translate(-345.88 -128.78)"/><path class="cls-9" d="M537,421c16.25,0,32.5,0,48.75,0,1.74,0,3.68-.67,5.18.9l-22.94.18-31-.17Q537,421.44,537,421Z" transform="translate(-345.88 -128.78)"/><path class="cls-1" d="M492.21,376c-.12,2.52-2,1.9-3.5,2-1.91.09-3.82.21-5.72.31-3.09.4-5.6,2-8,3.82-1.7-5.39-1.09-11.06-1.51-16.54-1.32-17-9-31-19.4-43.78-7.34-8.95-15.32-17.37-23.09-26-5.34-5.9-5.77-11.76-1.24-16.24,1.55-1.53,3.77-1.26,5.27-2.62,3-1.12,6-2.18,9,.16,4.06,15.11,14.59,26.35,23.39,38.55,7.61,10.56,12.44,22.29,17,34.35C487.53,358.5,488.75,367.55,492.21,376Z" transform="translate(-345.88 -128.78)"/><path class="cls-50" d="M434.91,249.76c-1.61,7.54-7.78,5.88-12.88,6.37a2,2,0,0,1-.36-1.61c1.41-3.08.83-6.36,1-9.57.09-2.08-.27-4.26,1.41-6,2-4.26,5.64-5.62,11.46-4.08,4.15,1.1,1.94,4.54,2.43,7C437.27,244.65,437.36,247.69,434.91,249.76Z" transform="translate(-345.88 -128.78)"/><path class="cls-51" d="M422.14,254.63l-.11,1.5c-2.06,1.77-3.93,4-7.15,2.91-2-1-2.56-3.16-3.62-4.89C410,251.5,408.49,249,408,246c-.39-3.32.75-6,4-7s6.78-4.54,10.18-.07A31.09,31.09,0,0,1,422.14,254.63Z" transform="translate(-345.88 -128.78)"/><path class="cls-51" d="M442.7,256.79c-3.49-.62-8.33.57-7.64-5.67,1.4-2.67,1.39-6,3.86-8.16.25-3.23,2.13-5.12,5.1-6,3.3-.94,6,.72,8,2.87,2.91,3.11-.61,4.9-2.09,7C449,251.3,446.93,254.83,442.7,256.79Z" transform="translate(-345.88 -128.78)"/><path class="cls-4" d="M396,255.92c1.54-7.55,3.75-9.36,10.93-8.92,2.23,2.09,3.31,4.91,4.69,7.53a13.93,13.93,0,0,1,2.17,5.7c-2.06,2.27-1.6,7.53-7,5.84-1-.68-2.44-.55-3.3-1.58-.8-.7-1.55-1.45-2.31-2.18C399.45,260.21,396.6,259,396,255.92Z" transform="translate(-345.88 -128.78)"/><path class="cls-4" d="M450.88,248.93a17.92,17.92,0,0,0,2.61-2.2c3.18-3.9,5.92-3.11,8.78.44,2.72,3.38,2.58,6.46-.92,8.85a57.29,57.29,0,0,1-10.69,6c-3.23,1.3-3.81-2.73-5.84-4C444.82,253.61,448.37,251.62,450.88,248.93Z" transform="translate(-345.88 -128.78)"/><path class="cls-4" d="M404,286c1.62,3.55,3.94,6.84,4.2,10.91-2,1.58-3.58.92-5-.91-3.88-2.07-7.83.06-11.73-.21-2.84-.2-5.42-1.07-5.46-4.51,0-2.92.49-5.83,4.24-6.21a49,49,0,0,1,5.47,0C398.38,286.48,401.5,283.32,404,286Z" transform="translate(-345.88 -128.78)"/><path class="cls-19" d="M398.93,284.11a25.59,25.59,0,0,0-9.58-2.24c-2.13,0-4.49-.45-5.19-3A7.18,7.18,0,0,1,386,271.9c1.76-1.86,4-.9,6,0,2.28,1,4.58,1.93,6.87,2.9,6.65,2.8,6.67,2.82,5,10A5.39,5.39,0,0,1,398.93,284.11Z" transform="translate(-345.88 -128.78)"/><path class="cls-51" d="M405.95,267c1.41,2.09,2,4.65.18,6.33s-4.3.63-6.43-.45c-2.76-1.41-5.59-2.68-8.35-4.07-3.06-1.54-4.2-4-3.19-7.31s3.64-3.87,6.68-3.43c2.62.51,4.33,2.4,6.21,4,.77.76,1.56,1.49,2.32,2.26C404.3,265.22,405.5,265.76,405.95,267Z" transform="translate(-345.88 -128.78)"/><path class="cls-50" d="M434.12,273.06c-.67,2-3.09,1.46-4.14,2.89-3,1.53-4.7-.49-6.51-2.29a3.68,3.68,0,0,1-1.14-2.75c-.32-.75-.61-1.52-1-2.25-1.29-2.58-2.56-5.24.09-7.65,2.84-2.59,6.42-2.24,9.86-1.81,1.4.17,1.48,1.57,1.54,2.75q.14,3,.29,5.92C434.45,269.41,435.18,271.06,434.12,273.06Z" transform="translate(-345.88 -128.78)"/><path class="cls-19" d="M424,281c-2.2,2.81,1.51,6.24-.93,9-1.23,1.25-2.94,1.15-4.45,1.61a12.83,12.83,0,0,1-4,.46L414,292c-5.09-1-9.27-10.21-6.48-14.44.3-.46,1.51-.31,2.3-.45,2.38.55,4.14,2.39,6.44,3.1a7.44,7.44,0,0,0,3.81.43C421.39,280.56,422.78,279.89,424,281Z" transform="translate(-345.88 -128.78)"/><path class="cls-50" d="M403.23,296c1.67.22,3.17,1.34,5,.91,4.76,3.89,4.64,4.48-1.6,7.93-2.2,2.63-5.29-.7-7.6,1.14-2.92,1.05-5.76,1.5-8-1.36-.91-1.16-2.12-2.44-1.64-4,.53-1.67,2.07-2.39,3.88-2.61C396.61,297.64,400.11,297.7,403.23,296Z" transform="translate(-345.88 -128.78)"/><path class="cls-51" d="M424,281l-3.91,1c-1.43-1-3.19-1.32-4.69-2.19-1.67-1.05-3.55-1.88-4.35-3.9-2-3.41-.08-9.41,3.47-11.13,1.76-.85,2.43.49,3.18,1.44,1.19,1.51,1.15,3.83,3.14,4.85,1.37.46,2,1.81,3.13,2.58,1.66,1.39,3.43,2.73,2.15,5.3Z" transform="translate(-345.88 -128.78)"/><path class="cls-50" d="M402.87,315.9c-1.47,0-3,.37-4.38-.44a4.65,4.65,0,0,1-2.67-4.39c0-2.19,1.77-2,3.06-2.52s2.69-1.16,4-1.74c2.12-1.67,4.87-.81,7.16-1.81,4.81.05,7.29,3,6,7.07A25.28,25.28,0,0,1,402.87,315.9Z" transform="translate(-345.88 -128.78)"/><path class="cls-19" d="M449.19,362.1c3.52.58,3.38,4,3.9,6.16.37,1.55-2.42,1.62-4,1.87-1.24,1.5-3.17,1.8-4.72,2.75a6.7,6.7,0,0,1-5.41.93c-2.92.43-5.23-.17-6-3.51s1.84-3.68,3.92-4.52C440.62,363.29,444.62,361.76,449.19,362.1Z" transform="translate(-345.88 -128.78)"/><path class="cls-52" d="M438,392c-2.12-2.39-3.44-4.78,0-7.2a14.67,14.67,0,0,1,3.78-2.08c1.83-.81,3.82-1.11,5.71-1.77,2.5-.26,5-2.06,7.48.15,0,.66-.2,1.49.11,2,3.34,5.09-.45,5.47-3.95,6.06-2.13,2.79-5.59,2.5-8.44,3.63A16.49,16.49,0,0,1,438,392Z" transform="translate(-345.88 -128.78)"/><path class="cls-53" d="M443.1,344.05c3.07,1.23,1.7,4.93,3.74,6.73-1.06,2-3.25,2.31-5,3.24-4.2,1.1-8.2,3.52-12.81,2.07-3-1-3.42-3.3-3-6,.92-2.52,3.2-2.93,5.39-3.48,3-.8,6-1.07,8.94-2.18C441.25,344.06,442.25,344.6,443.1,344.05Z" transform="translate(-345.88 -128.78)"/><path class="cls-50" d="M433.91,364.93c-3.65-.94-4.42-3.51-3.86-6.84,3.26-2.85,7.57-2.78,11.37-4.13,2.51-.39,5.05-3.36,7.53.06.13.93-.08,2.22.45,2.75,2.55,2.54.34,3.24-1.42,4.19A34.39,34.39,0,0,1,433.91,364.93Z" transform="translate(-345.88 -128.78)"/><path class="cls-50" d="M453,390c3.34.85,2.47,4.56,4.78,6.41-5.23,2.1-10.11,3.89-15.32,4.65-2.32.34-4.7.88-5.51-2.29-.85-3.34,1.25-4.4,3.93-5,1.18-1.52,2.92-1.65,4.63-1.88A70.55,70.55,0,0,1,453,390Z" transform="translate(-345.88 -128.78)"/><path class="cls-4" d="M451.13,371.07c3.67,1.06,4,3.92,3.84,7.08-3.08,2-6.56,2.91-10,3.87-2.32.57-4.61,1.86-7,.31-4.36-3.25-4.11-5,1.09-7.51,1.67-2.16,4.73-.93,6.56-2.69C447.31,371.31,449.31,371.64,451.13,371.07Z" transform="translate(-345.88 -128.78)"/><path class="cls-50" d="M437,274l-.87-1.11c-2.13-1.49-2-3.75-2-5.95,0-1.49,0-3,0-4.47a2.76,2.76,0,0,1,2.07-3c3.34-.66,6,1.31,8.58,2.94,2.14,1.36,1.37,3.31.54,5.28s-.61,4.59-2.24,6.43A4.51,4.51,0,0,1,437,274Z" transform="translate(-345.88 -128.78)"/><path class="cls-54" d="M415.95,331.74c-2.22.2-4.56,1-6-1.72a3.74,3.74,0,0,1,1-5.16c1.67-2.23,4.41-1.81,6.63-2.7,1.73-.95,3.68-.81,5.54-1.1,4.95-1.11,5.82,2.52,6.88,5.92-.64,1.57-2,2-3.49,2.21a14.13,14.13,0,0,0-5.17,1.69A6.33,6.33,0,0,1,415.95,331.74Z" transform="translate(-345.88 -128.78)"/><path class="cls-24" d="M425,347.15c-5.07-.06-3.36-3.39-2.95-6.1.6-1.69,2-2.09,3.58-2.36,2.84-.51,5.6-1.45,8.51-1.59,6.15-2.86,6.37,2.29,7.81,5.79a5.34,5.34,0,0,1-3,2,74,74,0,0,0-8.6,2.54C428.51,347.6,426.68,348.55,425,347.15Z" transform="translate(-345.88 -128.78)"/><path class="cls-50" d="M418,313c4,.48,6,3.93,4,7.14a14.35,14.35,0,0,1-3.91,1.78c-2.76.65-5.48,1.49-8.28,2-7.1.25-8.1-.93-5.85-6.87C408.28,314.3,413.19,313.81,418,313Z" transform="translate(-345.88 -128.78)"/><path class="cls-54" d="M433.89,329.31c-.85,2.22,4.89,5.21-.8,6.86-2.59,1.95-5.86,1.93-8.73,3-1,.57-2.32.17-3.35.78-5.34-.77-6.34-2.14-4.83-6.64,1.83-2.54,5-2.09,7.42-3.4,1.92-.75,4-.9,6-1.53C431,328.83,432.7,327.72,433.89,329.31Z" transform="translate(-345.88 -128.78)"/><path class="cls-55" d="M462,339.06c1.83,2.49,3.62,5,1.8,8.29-.61,1.68-2.08.93-3.21,1.16-2.75-.6-4.84,2.07-7.58,1.54-5.28-1.81-6.08-3.23-4.08-7.21,1.68-2.65,4.78-2.56,7.22-3.77C458.05,338.6,460,337.4,462,339.06Z" transform="translate(-345.88 -128.78)"/><path class="cls-24" d="M461.14,348l2.62-.66c4.31.86,3.86,4.36,4.12,7.46-4,2.32-7.84,5.15-12.89,3.34-4.2-1.45-3.71-4.21-2-7.3C455.61,349.7,458.05,347.9,461.14,348Z" transform="translate(-345.88 -128.78)"/><path class="cls-56" d="M457,331l4,6c-1.63,2.41-4.45,2.18-6.76,3.06-2.67.92-5.29,2.1-8.22,1.16-2.3-1.59-4.34-3.27-2.14-6.38,1.44-2.46,4.1-2.82,6.44-3.73C452.51,330.72,454.73,329.37,457,331Z" transform="translate(-345.88 -128.78)"/><path class="cls-4" d="M438,307.93a15.88,15.88,0,0,1,4.15,5.06c-1.89,5.48-6.56,3.49-10.35,3.83-6,1.07-7,.29-6.82-5C428.14,306.65,433.06,307.29,438,307.93Z" transform="translate(-345.88 -128.78)"/><path class="cls-53" d="M445,315.83l4,5.09c-3,4.11-7.54,3.91-11.92,4.08-2.49.43-4.77,0-5.89-2.45-.88-1.9,0-3.53,1.84-4.59C436.76,316,440.65,314.73,445,315.83Z" transform="translate(-345.88 -128.78)"/><path class="cls-50" d="M430,299.89c2.19,1.21,3.64,3.18,5.13,5.1.08,2.85-2.22,2.73-4,3.27-3.3,1-6.6,1.8-10.06.88-2.45-.72-3.16-2.58-3.12-4.87,0-2,1.47-2.28,3-2.44a5.44,5.44,0,0,1,3.19-1.85C426,299.72,428,299.34,430,299.89Z" transform="translate(-345.88 -128.78)"/><path class="cls-57" d="M418,291c1.42-1.7,3.36-.78,5.07-1,.76,3.52,4.15,5.07,5.87,7.87-.82,2.57-3.31,1.78-5,2.5-1.58.94-3.41-.41-5,.52-5.51-.45-7.25-3-5-7.16a3.88,3.88,0,0,1,3.27-1.74C417.76,291.9,418.21,291.72,418,291Z" transform="translate(-345.88 -128.78)"/><path class="cls-58" d="M468.86,357.3l1.09,5.58c-3.42,4.23-7.92,5.66-13,4.14-2.34-2.05-4-4.19-1-7C460.1,358.2,463.91,355.05,468.86,357.3Z" transform="translate(-345.88 -128.78)"/><path class="cls-50" d="M450,323.79c2.71.1,3.05,2.81,4.62,4.17-.67,3-3.62,2.66-5.56,3.81-3,.9-5.87,2.14-9.08,1.4-2.25-1.61-4-3.37-2-6.34.37-.28.75-.55,1.13-.81,1.7-.8,3.54-1.24,5.2-2.13C446.19,322.94,448.08,322.46,450,323.79Z" transform="translate(-345.88 -128.78)"/><path class="cls-4" d="M470,365.92c1.06,2.67,1.78,5.34,0,8-2.75,2.06-6.12,2.14-9.28,2.88-2.9-1.86-5.32-3.88-2.61-7.66C461.78,367.08,465.53,365.15,470,365.92Z" transform="translate(-345.88 -128.78)"/><path class="cls-53" d="M470,374.93c2.81,3,1.42,5.88-.11,8.79-2,1.73-4.56,1.58-6.9,2.19-2.51-.37-5-.85-5.11-4.1-.12-3.42,2.54-3.67,5-4.1C464.71,375.47,467.33,375.14,470,374.93Z" transform="translate(-345.88 -128.78)"/><path class="cls-59" d="M422.14,254.63q0-7.83,0-15.66l1.91,0c0,4.06,0,8.12-.06,12.19C424,252.63,424.15,254.23,422.14,254.63Z" transform="translate(-345.88 -128.78)"/><path class="cls-60" d="M418,313c-4.36,2.39-9.19,3.17-14,4l-1.14-1.1A35.58,35.58,0,0,1,416,312.09Z" transform="translate(-345.88 -128.78)"/><path class="cls-61" d="M433.91,364.93A60.13,60.13,0,0,1,448,361l1.21,1.14c-4.12,1.14-8,3.22-12.28,3.68C436.12,364.76,434.94,365.09,433.91,364.93Z" transform="translate(-345.88 -128.78)"/><path class="cls-62" d="M421,309.14c4.93-.58,10.11-.32,14.09-4.15l2.88,2.94c-4.45.95-9.19.9-13,3.9C424.87,309.13,421.91,310.65,421,309.14Z" transform="translate(-345.88 -128.78)"/><path class="cls-61" d="M468.86,357.3c-4.49-.07-8.56,1.83-12.84,2.72l-1-1.88c4.56-.1,8.34-3.21,12.89-3.34Z" transform="translate(-345.88 -128.78)"/><path class="cls-63" d="M470,365.92c-4.24.1-7.81,2.69-11.94,3.21L457,367a24.81,24.81,0,0,0,13-4.14Z" transform="translate(-345.88 -128.78)"/><path class="cls-64" d="M450,323.79c-2.06.27-4.25,0-6.06,1.36a11.56,11.56,0,0,0-5.15,1.75l-.83-.07A1.89,1.89,0,0,0,437,325L449,320.93Z" transform="translate(-345.88 -128.78)"/><path class="cls-25" d="M441.95,354.8l-11.9,3.3-1-2,13-3.15A1.18,1.18,0,0,1,441.95,354.8Z" transform="translate(-345.88 -128.78)"/><path class="cls-26" d="M450.88,248.93l-6.07,9-2.1-1.18,7.24-9.89Z" transform="translate(-345.88 -128.78)"/><path class="cls-65" d="M424,339c2.59-2.41,5.86-2.58,9.12-2.79l1,.92c-2.37,2-5.35,2.19-8.21,2.72C425.38,339.28,424.43,339.69,424,339Z" transform="translate(-345.88 -128.78)"/><path class="cls-66" d="M445,315.83c-4.15-.13-8,1.55-12,2.14l-1.21-1.15c3.2-2,7.68-.44,10.35-3.83Z" transform="translate(-345.88 -128.78)"/><path class="cls-67" d="M445.1,381.17l9.86-3c-.77,1-.4,2,0,3-2.77-1-5.18,1.35-7.89.88C446.09,382.45,445.08,383,445.1,381.17Z" transform="translate(-345.88 -128.78)"/><path class="cls-23" d="M437,274l6,.1,1,3-9-.16C435.66,275.93,437.15,275.51,437,274Z" transform="translate(-345.88 -128.78)"/><path class="cls-68" d="M470,374.93c-2.05,1.78-4.7,2-7.14,2.79l-2.17-.93c2.88-1.64,5.74-3.35,9.28-2.88Z" transform="translate(-345.88 -128.78)"/><path class="cls-69" d="M453,412q0-.5,0-1h17.78l0,1Z" transform="translate(-345.88 -128.78)"/><path class="cls-70" d="M409.86,323.88a17.76,17.76,0,0,1,8.11-2.73,2.55,2.55,0,0,1,.13,1.88c-2.17,1.45-4.81,1.06-7.16,1.82Z" transform="translate(-345.88 -128.78)"/><path class="cls-34" d="M401,263a22,22,0,0,1-6.15-4.88,2.4,2.4,0,0,0,1.19-2.2l6.08,6A1.31,1.31,0,0,1,401,263Z" transform="translate(-345.88 -128.78)"/><path class="cls-71" d="M411.06,255l-4.1-8,1-1c1.7,2.46,3.6,4.82,4,7.92C412.46,255,411.94,255.15,411.06,255Z" transform="translate(-345.88 -128.78)"/><path class="cls-61" d="M438.92,243c-1.11,2.81-1,6.2-3.86,8.16l-.15-1.37a13.49,13.49,0,0,1,3-7.85Z" transform="translate(-345.88 -128.78)"/><path class="cls-72" d="M453,390c-2.13,1.6-4.71,2-7.18,2.74-.94-.68-2.37.25-3.15-1,2.52-1.74,5.61-1.68,8.38-2.64Z" transform="translate(-345.88 -128.78)"/><path class="cls-73" d="M440,333.17l9.08-2c.43.21,1,.29,1.05.91l-6.27,2.73Z" transform="translate(-345.88 -128.78)"/><path class="cls-74" d="M461.14,348c-2.53,1.52-5,3.3-8.19,2.84q0-.4,0-.8C455.42,348.25,457.74,346,461.14,348Z" transform="translate(-345.88 -128.78)"/><path class="cls-42" d="M411,275.91l4.92,3.29a1.21,1.21,0,0,1,0,1.88c-2.74-.25-4.61-1.86-6.16-4Z" transform="translate(-345.88 -128.78)"/><path class="cls-34" d="M441.95,354.8l0-1.85,4.85-2.16c.55,1.18,2.38,1.53,2.11,3.24C446.4,352.26,444.28,354.49,441.95,354.8Z" transform="translate(-345.88 -128.78)"/><path class="cls-75" d="M446,341.17l8.12-2c.59.49,1.59,0,2,.87-2.16,1.59-4.8,1.92-7.24,2.77Z" transform="translate(-345.88 -128.78)"/><path class="cls-26" d="M410.08,305a14.63,14.63,0,0,1-7.16,1.81c-1.09-1.31-2.61-.63-3.93-.85,2.34-1.71,5.06-.83,7.6-1.14Z" transform="translate(-345.88 -128.78)"/><path class="cls-31" d="M423.94,330.88l-7.78,2.46-.22-1.6,5-1.78C422.18,329.53,423.54,328.66,423.94,330.88Z" transform="translate(-345.88 -128.78)"/><path class="cls-23" d="M425,347.15l5.8-.31c1-.47,1.24,0,1.12.92a13.92,13.92,0,0,0-5.86,2.32Z" transform="translate(-345.88 -128.78)"/><path class="cls-76" d="M463,385.91c2.05-1.51,4.5-1.79,6.9-2.19L470,385l-7,1.88Z" transform="translate(-345.88 -128.78)"/><path class="cls-62" d="M398.93,284.11c1.75-.61,3.35,0,4.95.61L404,286c-2.76-.16-5.62.69-8.23-.89C396.84,284.86,398.12,285.22,398.93,284.11Z" transform="translate(-345.88 -128.78)"/><path class="cls-77" d="M434.09,266.91l2,5.95-2,.2c-.17-1.76-1.45-3.31-1-5.19Z" transform="translate(-345.88 -128.78)"/><path class="cls-72" d="M445.1,381.17,447,382c-1.43,1.39-3.48,1-5.12,1.84-1.31-.34-2.87.47-4-.84a3.32,3.32,0,0,1-.06-.69Z" transform="translate(-345.88 -128.78)"/><path class="cls-66" d="M418.1,323c-1.19-.55-.32-1.24-.13-1.88a5.05,5.05,0,0,1,4.08-1l1.07.94Z" transform="translate(-345.88 -128.78)"/><path class="cls-65" d="M451.13,371.07a7.85,7.85,0,0,1-5.23,1.74c-.66-.34-1.6,0-2-.9a11,11,0,0,1,5.21-1.77Z" transform="translate(-345.88 -128.78)"/><path class="cls-15" d="M443.87,371.9l2,.9c-2,1.82-4.79.71-6.92,2l0-1Z" transform="translate(-345.88 -128.78)"/><path class="cls-78" d="M411.06,255l.94-1,2.87,5.08-1.07,1.19Z" transform="translate(-345.88 -128.78)"/><path class="cls-59" d="M433.89,329.31c-1.53-.67-3.11-.32-4.68-.22-1.18.24-2.56,1.18-3.1-.87L430,327C430.79,328.6,433.39,327.21,433.89,329.31Z" transform="translate(-345.88 -128.78)"/><path class="cls-25" d="M442.73,391.79c1.06.29,2.33-.11,3.15,1l-4.95,1L438,392Z" transform="translate(-345.88 -128.78)"/><path class="cls-26" d="M438,383c1.36.12,2.87-.49,4,.84a4.32,4.32,0,0,1-4,1Z" transform="translate(-345.88 -128.78)"/><path class="cls-79" d="M418.9,300.9c1.44-1.5,3.33-.8,5-1a.6.6,0,0,1,.29.62q-.08.35-.19.35l-3.14,1Z" transform="translate(-345.88 -128.78)"/><path class="cls-34" d="M405.95,267l-3.11-2a1.65,1.65,0,0,1,1.28-1.31c1,.68,2.29,1,2.72,2.31Z" transform="translate(-345.88 -128.78)"/><path class="cls-80" d="M439,344.09l2.91-1.2,1.16,1.17-1.89,1C440.17,345.42,439.06,346,439,344.09Z" transform="translate(-345.88 -128.78)"/><path class="cls-3" d="M424,339l1.95.86L422,341,421,340C421.75,339,422.93,339.15,424,339Z" transform="translate(-345.88 -128.78)"/><path class="cls-26" d="M423,273.81c-1.34-.43-1.58-1.75-2.21-2.75l1.5-.16,1.75,2A1.62,1.62,0,0,1,423,273.81Z" transform="translate(-345.88 -128.78)"/><path class="cls-42" d="M418,293l-4.06.75L414,292l-.09-.18C415.4,291.76,417.3,290.27,418,293Z" transform="translate(-345.88 -128.78)"/><path class="cls-50" d="M492.24,173.07,483.93,172a12,12,0,0,1-2.86-7.21,26.66,26.66,0,0,0-3-10.33c-1.36-2.64-.09-4.45,3-4.75a4.93,4.93,0,0,1,4.3,5c-.87,2.22.48,3.22,2.2,4,2.62.58,2.88-2,4.16-3.14,2.18-1.13.46-4.62,3.25-5.38,3.45-1.24,3.72,2.87,3.46,3.32C494.85,159.63,496.9,167.44,492.24,173.07Z" transform="translate(-345.88 -128.78)"/><path class="cls-51" d="M413.14,154.22c-1.92,3.13-2.49,6.75-2.92,10.22A17.58,17.58,0,0,1,406,174c-1.19.94-2.59.47-3.9.59a2.86,2.86,0,0,1-1.23-.43c-3.44-1.54-4.23-4.77-4.84-8-.73-3.87-1.38-7.64-3.35-11.23-1.5-2.74-.71-5.24,3.29-5,1.11.58,1.8,1.64,2.76,2.4a3,3,0,0,1,.86,1.69,5.84,5.84,0,0,0,1.12,4.38c.71.72,1.28,1.64,2.49,1.52a5.71,5.71,0,0,0,1.65-1.42A17,17,0,0,0,406.6,157c1.14-1.14,2.15-2.27.23-3.61-.08-.21-.15-.42-.23-.63a2.13,2.13,0,0,1,.43-1.28c1.47-1.21,2.93-2.45,5-1.58h0C412.32,151.37,413.5,152.6,413.14,154.22Z" transform="translate(-345.88 -128.78)"/><path class="cls-51" d="M440.84,150c.3.77,1.07,1.76.83,2.27-3.37,7-1.78,15.69-7.6,21.79a2.16,2.16,0,0,1-1.19.45c-1.3-.36-2.45.81-3.76.37-.76-1-2.1-1.38-2.57-2.8-2.08-6.27-4.32-12.49-4.67-19.17,1.54-.76,2.34.57,3.39,1.2.67.51,1.37,1,2,1.54.72.76,1.26,1.66,2,2.43.29.29.56.59.84.87,1.18,1,2.06.49,2.82-.58a28,28,0,0,1,1.75-2.66c.94-.84,2.27-1.47,1.58-3.13C436.67,149.78,438.15,148.83,440.84,150Z" transform="translate(-345.88 -128.78)"/><path class="cls-50" d="M470.1,154.17a61.57,61.57,0,0,0-3.19,10.9c-.79,3.35-.75,7.37-4.9,9a11,11,0,0,0-4.1.12c-3.3-.53-4.1-3.63-4.42-5.82a50.46,50.46,0,0,0-3.94-14.09,4.31,4.31,0,0,1,1.2-4.87c1.33-1.21,2,1,3.09,1.55,2.25,0,1.64,1.65,1.29,2.65s-.77,1.77.41,2.43a21.45,21.45,0,0,1,2.46,1.95c.29.25.57.53.84.79a1.11,1.11,0,0,0,1.77-.19,7.13,7.13,0,0,1,2.38-2c2.84-.11,3.8-4.41,7.2-3.22.08,0,.13.27.11.4A1.76,1.76,0,0,1,470.1,154.17Z" transform="translate(-345.88 -128.78)"/><path class="cls-38" d="M373,174l-1.09.08a6.87,6.87,0,0,1-3.68-6c-.21-4.61-2.17-8.63-3.28-12.92-.84-2.11-.21-2.78,1.93-2,1.37.79,2.29,2.1,3.56,3,.87.61,1.92.92,2.77,1.56a6.29,6.29,0,0,1,.77,1c2.08,2,2.07-.7,3-1.32a13.34,13.34,0,0,1,1.86-2.81,18.44,18.44,0,0,1,5.35-2.87c1.15,4.32-3.89,20.35-7.05,22.42C375.7,174.75,374.35,174.25,373,174Z" transform="translate(-345.88 -128.78)"/><path class="cls-22" d="M430.12,179.27c-.45,5.78-4.66,8.45-9.34,9.53-5.4,1.26-10.87.46-14.58-4.62-1.17-1.59-2.18-3.3-3.26-4.95-.41-.53-1.12-.81-1.26-1.56a1.73,1.73,0,0,1,1.4-1.36A2.15,2.15,0,0,1,405,177c4.27,8.63,7.93,10.67,15.74,9,5.44-1.16,7.1-5.38,8.42-10C431.27,176.56,430.84,177.87,430.12,179.27Z" transform="translate(-345.88 -128.78)"/><path class="cls-58" d="M457.91,174.16c1.29-2.47,2.65-2.73,4.1-.12a2,2,0,0,0-.05.89c-1.87.8-1.15,2.77-1.86,4.09-3.51,6.42-8,11-16.24,10.14a10.3,10.3,0,0,1-6.89-3.11c-.22-1,.11-1.43,1.16-1.12,2.83.87,5.63,1.68,8.68,1.35C453.93,185.52,456.28,183,457.91,174.16Z" transform="translate(-345.88 -128.78)"/><path class="cls-57" d="M401.86,177.94l1.07,1.3C396.79,190,388.51,192.48,380,186c-.12-.93.13-1.45,1.19-1.07,8.85,2.69,13.85,1.88,17.18-2.87.93-1.33,1.68-2.8,2.51-4.2Q401.44,177.25,401.86,177.94Z" transform="translate(-345.88 -128.78)"/><path class="cls-11" d="M368.95,150.83c.22-1.23-.72-2.89.74-3.63,1.7-.86,2.05.93,2.75,1.9l.77-1.07c1.78-.59,2,1.47,3.17,1.88a.5.5,0,0,1,.47-.26c.85.85.34,1.66,0,2.49a10.6,10.6,0,0,1-2.49,3.16,3.14,3.14,0,0,1-1.26.34c-1.22-.35-2.58-.19-3.67-1C368.52,153.42,367.83,152.23,368.95,150.83Z" transform="translate(-345.88 -128.78)"/><path class="cls-81" d="M425.07,155,421.88,153c-1.3-1.79-1.5-3.25,1.13-3.88,1.18.31,2.07,1.31,3.33,1.42.94-.15,1.82-.51,2.75-.69a1.37,1.37,0,0,0,.77,0c1.18,1.34,2.6.7,4,.47a2.8,2.8,0,0,1,1.23.5,2.11,2.11,0,0,1,.33,1.28c-.5,2-2,2.85-3.82,3.36a3.94,3.94,0,0,1-1.27.1c-.6-.12-1.18-.34-1.78-.46C427.38,154.8,426.2,156,425.07,155Z" transform="translate(-345.88 -128.78)"/><path class="cls-82" d="M397.16,147.09c1.57-.42,3.92,2.08,4.73-1.3a1,1,0,0,1,1.59-.56c1.06,1.05.59,2.47.48,3.76-.52,2.22,2.08.84,2.4,2.09a3.7,3.7,0,0,1,0,2c-1.44,2.07-3,1.6-4.55.18-1-.91-2.5-.55-3.56-1.33C396.83,150.55,395.74,149.09,397.16,147.09Z" transform="translate(-345.88 -128.78)"/><path class="cls-83" d="M455.27,156.89c-1.85-.95-4.51-1.69-.89-3.95.16-.1.59-1.6-.55-2,.43-1.29-.7-3.21,1.36-3.82,1.2-.36,1.82.45,2,1.61.71.78,1.82,1.08,2.41,2a2.53,2.53,0,0,1,.6,2.41,6.49,6.49,0,0,1-2,1.55A32.91,32.91,0,0,0,455.27,156.89Z" transform="translate(-345.88 -128.78)"/><path class="cls-84" d="M470.1,154.17c-2.06-1.5-2.29,1-3.32,1.63-1.19.73-1.92,2.38-3.72,1.29a1.67,1.67,0,0,1-.51-1.17,13.12,13.12,0,0,1,.73-3.25c.67-1.65,2.3-2.07,3.66-2.81C469.85,149.56,470.54,150.51,470.1,154.17Z" transform="translate(-345.88 -128.78)"/><path class="cls-85" d="M484.94,154.8l-3.88-5.08c1.73-1.91,3.49-3.58,5.84-.76,3,.51,2.07,2.65,1.89,4.49a3.14,3.14,0,0,1-2.44,2A1.67,1.67,0,0,1,484.94,154.8Z" transform="translate(-345.88 -128.78)"/><path class="cls-86" d="M384.14,151.72c-1,2.15-2.9,2.87-5,3.26-.83.55-1.34,0-1.84-.55-1.15-2.72-.19-4.15,2.69-4.42C381.32,150.67,384.57,146.71,384.14,151.72Z" transform="translate(-345.88 -128.78)"/><path class="cls-56" d="M434,151c-1.84,1.23-3.72,2.61-4.11-1.19,0-1.59,0-3.17,0-5.07,2.24.34,3.08,1.35,3.17,3.13C433.84,148.74,434.71,149.62,434,151Z" transform="translate(-345.88 -128.78)"/><path class="cls-83" d="M381.2,184.89,380,186c-3-1.33-3.54-4.5-5-7-.16-.71-.91-1.38-.21-2.14s1.41-.14,2.1.14C377.67,180,379.85,182.21,381.2,184.89Z" transform="translate(-345.88 -128.78)"/><path class="cls-58" d="M368.95,150.83l1,4.14-.62.28A7.58,7.58,0,0,1,367,154c-1.26-.65-2.08-.5-2.07,1.15-2.07-2.12-.39-4.36.63-5.71C366.87,147.68,367.75,150.36,368.95,150.83Z" transform="translate(-345.88 -128.78)"/><path class="cls-87" d="M467,149.85c-.32,1.76-2.36,1.91-3.07,3.29a1.77,1.77,0,0,1-1.33.29,2.39,2.39,0,0,1-1.37-1.56,5.69,5.69,0,0,1-.16-2.16,2.64,2.64,0,0,1,2.21-2.54C465.87,146.1,465.59,149.12,467,149.85Z" transform="translate(-345.88 -128.78)"/><path class="cls-88" d="M488,154c-.24-1.71.69-3.67-1.08-5.05.73-1.1-1.79-4.4,2.22-3.27.49,1.94.83,3.94,2.18,5.54a4.93,4.93,0,0,1,1,1.83,2.52,2.52,0,0,1-1.39,2.39A2.23,2.23,0,0,1,488,154Z" transform="translate(-345.88 -128.78)"/><path class="cls-89" d="M438.12,184.93,437,186.05c-2.8-.44-3.09-3-4-4.92-.21-1.17-2.23-2.23-.22-3.53a1.27,1.27,0,0,1,1.21.47A20,20,0,0,0,438.12,184.93Z" transform="translate(-345.88 -128.78)"/><path class="cls-56" d="M461.94,149.82,462,152c-.46.76-.93,1.48-2,1l-1-2a25.41,25.41,0,0,0-.83-3.07c.48-3.2.72-3.36,3-2C462.1,147.15,461,148.68,461.94,149.82Z" transform="translate(-345.88 -128.78)"/><path class="cls-90" d="M433.08,177.92c-1.31,1,.3,2.16-.16,3.2l-2.8-1.86c-.21-1.11.13-2.39-1-3.2q0-.57,0-1.14c1.14-1,2-3.08,3.92-1C431.82,175.25,433.65,176.57,433.08,177.92Z" transform="translate(-345.88 -128.78)"/><path class="cls-22" d="M380,150c-1.35.94-3.29,1.58-1.95,3.87-2,1-2.72.42-2.08-1.75l.91-2.47c.27-1.33.82-2.69,2.36-2.4S380,149,380,150Z" transform="translate(-345.88 -128.78)"/><path class="cls-91" d="M491,155l1-2c-.24-1.82-1-3.89,2.07-4l.9,1.25c-.62,1.12-1.17,2.18-.61,3.57,1,2.44-1,2-2.31,2.25A1.28,1.28,0,0,1,491,155Z" transform="translate(-345.88 -128.78)"/><path class="cls-57" d="M429.1,149.8c-.26,2.4-1.5,2.14-3,1.12a1.53,1.53,0,0,1-.18-2.12c.08-.8,0-1.84,1.27-1.53A2.45,2.45,0,0,1,429.1,149.8Z" transform="translate(-345.88 -128.78)"/><path class="cls-52" d="M434,151l-.94-3.13c1.35-.11,2.69-1.86,4.06,0,.73,2,.25,3.22-2.1,3.18Z" transform="translate(-345.88 -128.78)"/><path class="cls-19" d="M494.06,149c-1.78.79-1.26,2.75-2.07,4l-1-1a2.73,2.73,0,0,1,0-3.93C492.57,146.58,493.79,146.21,494.06,149Z" transform="translate(-345.88 -128.78)"/><path class="cls-92" d="M435,151a3.47,3.47,0,0,0,2.1-3.18c.77,1.55,3.14.39,3.74,2.22-2.82-.21-4,1.16-3.81,3.9-2.08.82-2.87.29-2-1.94Q435,151.5,435,151Z" transform="translate(-345.88 -128.78)"/><path class="cls-57" d="M376.38,149.91,373.21,148c-.3-1.37-.33-2.79,1.43-3s1.22,1.46,1.4,2.45C376.19,148.31,376.27,149.12,376.38,149.91Z" transform="translate(-345.88 -128.78)"/><path class="cls-85" d="M412.08,149.92,407,152c-1.14-1.91,0-3.36,1-4.83Z" transform="translate(-345.88 -128.78)"/><path class="cls-93" d="M491,148.08q0,2,0,3.93c-3.72-1.19-1.36-4.18-1.87-6.32Z" transform="translate(-345.88 -128.78)"/><path class="cls-94" d="M397.16,147.09c-.81,2.12,1,3.3,1.72,4.9a1.27,1.27,0,0,1-1,.89A2.67,2.67,0,0,1,396,150C396,148.88,395.76,147.65,397.16,147.09Z" transform="translate(-345.88 -128.78)"/><path class="cls-54" d="M408,147.18,407,152q0,.48,0,1a.75.75,0,0,1-1,0l0-2a1.86,1.86,0,0,1-.12-2.21C406,147.47,406.62,146.84,408,147.18Z" transform="translate(-345.88 -128.78)"/><path class="cls-95" d="M405,177l-2.07-.1c-1-.87-.87-2.06-1-3.19,1.49-1.42,2.73.55,4.13.3Z" transform="translate(-345.88 -128.78)"/><path class="cls-96" d="M433.08,177.92c0-1.35-3.5-2.65,0-4l1,.22-.15,4A6.39,6.39,0,0,0,433.08,177.92Z" transform="translate(-345.88 -128.78)"/><path class="cls-97" d="M401.89,173.72c1.24.78,1.13,2,1,3.19l-1,1a4.59,4.59,0,0,1-1-.11q0-1.82,0-3.65Z" transform="translate(-345.88 -128.78)"/><path class="cls-98" d="M373,174c1.41-.92,2.74-.07,4.11.15a4.46,4.46,0,0,1-.24.93C375.73,174.11,373.54,177,373,174Z" transform="translate(-345.88 -128.78)"/><path class="cls-99" d="M458.16,148c1,.82,2.52,1.51.83,3.07a2.45,2.45,0,0,1-1.82-2.32Z" transform="translate(-345.88 -128.78)"/><path class="cls-100" d="M460.09,179c0-1.65-1.12-3.8,1.86-4.09l0,1.23c-1.11.67-.78,1.91-1.14,2.88Z" transform="translate(-345.88 -128.78)"/><path class="cls-85" d="M413.14,154.22a6.11,6.11,0,0,1-1.07-4.31C412.81,151.25,414.77,152.29,413.14,154.22Z" transform="translate(-345.88 -128.78)"/><path class="cls-101" d="M405.85,148.76,406,151c-1.12-.2-3.29.68-2-2C404.73,150.08,405.23,149,405.85,148.76Z" transform="translate(-345.88 -128.78)"/><path class="cls-40" d="M425.89,148.8l.18,2.12c-1.81.7-1.93-1.41-3.06-1.85Z" transform="translate(-345.88 -128.78)"/><path class="cls-66" d="M461.94,149.82c-1.69-1-.73-2.5-.74-3.81l2,1.17Z" transform="translate(-345.88 -128.78)"/><path class="cls-51" d="M546.45,404.57c-16.79-.31-33.48,2.1-50.25,1.35a14.22,14.22,0,0,1-1.49-.1c-6.91-1-11.55-5.75-10.7-10.82.79-4.7,6.48-7,13.56-5.17a79.37,79.37,0,0,0,18.25,2.11c10.75.18,21.61.09,31.76,4.62a3.17,3.17,0,0,0,1.43.35,35.71,35.71,0,0,1,19.19,4.22c1.07.54,2.17,1.24,3.09,0s-.47-1.71-1-2.44c-.95-1.39-2.34-3-.66-4.35,1.52-1.19,2.48,1.44,3.54,1.6,5.17.81,8,4.18,10.74,8.43a12.15,12.15,0,0,1-6-1.34c-2-1.08-3.23-.61-3.45,1.69-.38,3.88-3.4,2.8-4.67,1.73-5.27-4.47-11.58-4.84-17.94-6.11-17-3.39-34.13-4.8-51.28-6.44a43.73,43.73,0,0,0-5-.06c-1.79,0-3.41.47-3.59,2.62a4,4,0,0,0,2.66,4.34,19.92,19.92,0,0,0,6.81,1.25c12.32-.09,24.64,0,37,0A11.52,11.52,0,0,1,546.45,404.57Z" transform="translate(-345.88 -128.78)"/><path class="cls-102" d="M450.11,332.06l-1.05-.91,5.56-3.19c1.51.45,1.71,1.91,2.36,3Z" transform="translate(-345.88 -128.78)"/><path class="cls-103" d="M423,273.81l1-.88c2,.87,3.07,3.7,5.9,3l-3.88,3C426.52,276.38,424.79,275.09,423,273.81Z" transform="translate(-345.88 -128.78)"/><path class="cls-104" d="M424,300.85q0-.48-.11-1l5-2,1,2C428.19,301.4,426.09,301,424,300.85Z" transform="translate(-345.88 -128.78)"/><path class="cls-25" d="M456.13,340.06l-2-.87,6.87-2.24,1,2.11Z" transform="translate(-345.88 -128.78)"/><path class="cls-105" d="M548.08,286,549,285l1.23.11c.74.9,2.13.78,2.79,1.81l.14,1c-.71,1.16-1.9.94-3,1-1.21.81-2.08.46-2.7-.77A2.11,2.11,0,0,1,548.08,286Z" transform="translate(-345.88 -128.78)"/><path class="cls-1" d="M553,286.94c-1.32,0-2.89.39-2.79-1.81L554,285c.56,1.16-.48,1.48-1.08,2Z" transform="translate(-345.88 -128.78)"/><path class="cls-106" d="M552.92,287l1.08-2q.48,0,1,.06c.43.89,1.32.94,2.12,1.14C555.89,287.41,554.33,286.83,552.92,287Z" transform="translate(-345.88 -128.78)"/><path class="cls-80" d="M548,288c.45.92,1.32.95,2.17,1-1.18,1.57-1.44,4.1-4.2,4,0-1.33,1.4-2.67,0-4a1.84,1.84,0,0,1,1-1.38A.91.91,0,0,1,548,288Z" transform="translate(-345.88 -128.78)"/><path class="cls-35" d="M547,288l-1,1a3.43,3.43,0,0,1-2-2.95c.53-.68.61-2.27,2.08-1A3.51,3.51,0,0,1,547,288Z" transform="translate(-345.88 -128.78)"/><path class="cls-107" d="M547,288a2.84,2.84,0,0,1-1-3,1.84,1.84,0,0,1,2.07.92l-.1,2Z" transform="translate(-345.88 -128.78)"/><path class="cls-66" d="M404.11,263.76l-1.28,1.31L401,263l1.13-1.08Z" transform="translate(-345.88 -128.78)"/><path class="cls-108" d="M418,293c-1-1.53-2.75-.69-4.09-1.17,1.19-1.12,2.71-.61,4.08-.82.89.14,2.38-.27,2.47.75C420.62,293.46,419,292.77,418,293Z" transform="translate(-345.88 -128.78)"/><path class="cls-109" d="M416,281.07l0-1.88c1.45.82,3.35,1,4.12,2.81C418.66,281.92,417.11,282.42,416,281.07Z" transform="translate(-345.88 -128.78)"/><path class="cls-110" d="M439,344.09l2.18,1c-2.86,1.72-6.19,1.81-9.29,2.7l-1.12-.91A18.17,18.17,0,0,1,439,344.09Z" transform="translate(-345.88 -128.78)"/><path class="cls-72" d="M426.11,328.22c.83,1,2,.66,3.1.87a10.66,10.66,0,0,1-5.26,1.79c-.75-1.11-1.93-.81-3-.92C422.57,329.08,424.13,328,426.11,328.22Z" transform="translate(-345.88 -128.78)"/><path class="cls-53" d="M438.8,326.9c1.24-2,3.13-2.05,5.15-1.75A10.39,10.39,0,0,1,438.8,326.9Z" transform="translate(-345.88 -128.78)"/><path class="cls-81" d="M491,155l1.06,1.08c-1,2.28-.75,6.18-5.16,3.85-.73-1.58-2.7-2.95-.81-5l1.92-1Z" transform="translate(-345.88 -128.78)"/><path class="cls-111" d="M486.07,155l.81,5c-1-1.56-5.47-1.84-1.93-5.12Z" transform="translate(-345.88 -128.78)"/><path class="cls-101" d="M406,153h1v0c1.18,1.65.68,3.35.12,5a2.28,2.28,0,0,1-2.06,1.08c-1.38-1.14-2.25-2.86-4.06-3.51a2.91,2.91,0,0,1-1.27-1.6c-.07-1.6,1.07-1.85,2.27-2C403.12,153.17,404.23,154.4,406,153Z" transform="translate(-345.88 -128.78)"/><path class="cls-40" d="M401.12,155c3-.25,4,1.42,3.94,4.12l-1,1.91c-1.33-.65-2.79-1.13-3.62-2.51C399.9,157.2,399.89,156,401.12,155Z" transform="translate(-345.88 -128.78)"/><path class="cls-112" d="M401.12,155l-.14,4a.61.61,0,0,1-1.06,0c-1.46-1.45-2.28-3-.88-5q.4-.67,1-.14Z" transform="translate(-345.88 -128.78)"/><path class="cls-85" d="M407.12,158l-.12-5,3.14,1.36Z" transform="translate(-345.88 -128.78)"/><path class="cls-113" d="M399.93,159l1.06,0c1.45,0,3-.08,3.09,2C401.46,162.92,401.29,159.75,399.93,159Z" transform="translate(-345.88 -128.78)"/><path class="cls-43" d="M400,153.92a9.37,9.37,0,0,1-1,.14l-1.17-1.17,1-.89c1-.18,2.07-1.61,3.12,0Z" transform="translate(-345.88 -128.78)"/><path class="cls-84" d="M430,155h.94c1.75-.92,3-.3,4.09,1.19l-1.13,2.89A4.28,4.28,0,0,1,429,159l0,0C428.35,157.45,427.15,155.74,430,155Z" transform="translate(-345.88 -128.78)"/><path class="cls-8" d="M435,156.2,430.94,155l4-3c.06,1.29.69,2,2,1.94C438.17,156.3,435.92,155.65,435,156.2Z" transform="translate(-345.88 -128.78)"/><path class="cls-114" d="M429,159l4.94.1C432.21,161.48,430.53,162.82,429,159Z" transform="translate(-345.88 -128.78)"/><path class="cls-115" d="M430,155c-1.54,1.05-.77,2.67-1,4a3.41,3.41,0,0,1-2.21-3c.74-.7.34-2.59,2.21-2.11Z" transform="translate(-345.88 -128.78)"/><path class="cls-116" d="M429,153.94l-2.21,2.11a1.76,1.76,0,0,1-1.74-1.05C426.67,155.72,427.09,152,429,153.94Z" transform="translate(-345.88 -128.78)"/><path class="cls-18" d="M463,156.24a5.23,5.23,0,0,0,.08.84L460.87,159a2.13,2.13,0,0,1-2.92,0l.05,0c-1.14-1.7-.82-3.14.75-4.37A3.13,3.13,0,0,1,463,156.24Z" transform="translate(-345.88 -128.78)"/><path class="cls-65" d="M459.13,155.09A4.38,4.38,0,0,0,458,159l-2.73-2.12c-.15-2,.88-2.86,2.73-3a1,1,0,0,1,1.21,0A1.09,1.09,0,0,1,459.13,155.09Z" transform="translate(-345.88 -128.78)"/><path class="cls-117" d="M457.95,159l2.92,0c.06.9.53,2.23-.59,2.44C458.63,161.78,458.63,159.94,457.95,159Z" transform="translate(-345.88 -128.78)"/><path class="cls-118" d="M375.94,152.12c.05,1.34.81,1.85,2.08,1.75l1.1,1.1c.15,1.2-.57,2.08-1.15,3-.89.48-1.56,0-2.21-.52a6.63,6.63,0,0,1-1.59-2.54C374.62,153.9,374.75,152.67,375.94,152.12Z" transform="translate(-345.88 -128.78)"/><path class="cls-119" d="M376.1,157l1.87,1c-1.66.3-1.94,7.42-5,1A6.53,6.53,0,0,1,376.1,157Z" transform="translate(-345.88 -128.78)"/><path class="cls-120" d="M376.1,157c-.13,2.06-1.57,2.11-3.1,2l0-1.1a2,2,0,0,1,0-2.9l1.15-.08C375.49,155,375.91,155.86,376.1,157Z" transform="translate(-345.88 -128.78)"/><path class="cls-121" d="M373,155q0,1.45,0,2.9c-1.16.23-2.25.23-3-.87a1.36,1.36,0,0,1,.07-2l0-.05A2.82,2.82,0,0,1,373,155Z" transform="translate(-345.88 -128.78)"/><path class="cls-122" d="M370,155l-.07,2a6.94,6.94,0,0,1-2.95-3Z" transform="translate(-345.88 -128.78)"/><path class="cls-123" d="M458.89,154.08a3.08,3.08,0,0,1-.9-.19l2-.89,2-1,1.05,1C462.25,155.72,460.45,154.43,458.89,154.08Z" transform="translate(-345.88 -128.78)"/><path class="cls-124" d="M458.89,154.08c1.41-.23,3,.36,4.15-1a4.28,4.28,0,0,1,.83.11c.13,1.16.19,2.29-.9,3.1l-3.86-1.15Z" transform="translate(-345.88 -128.78)"/></svg>