<svg id="Layer_1" data-name="Layer 1" xmlns="http://www.w3.org/2000/svg" viewBox="0 0 442.5 436.11"><defs><style>.cls-1{fill:#005da2;}</style></defs><title>saderat bank</title><path class="cls-1" d="M244,54H392V401.82A61.4,61.4,0,0,0,411.38,447c14.75,13.63,39.63,23.5,80.13,8.5,0,0-76,60-187,22A71.24,71.24,0,0,1,293,472.36a93.4,93.4,0,0,1-48.57-82.09Z" transform="translate(-244 -54)"/><path class="cls-1" d="M686.5,490.11h-148V142.29a61.4,61.4,0,0,0-19.37-45.18c-14.75-13.62-39.62-23.5-80.12-8.5,0,0,76-60,187-22a71.24,71.24,0,0,1,11.46,5.14A93.4,93.4,0,0,1,686,153.83Z" transform="translate(-244 -54)"/><circle class="cls-1" cx="219" cy="219" r="71"/></svg>