<svg id="Layer_1" data-name="Layer 1" xmlns="http://www.w3.org/2000/svg" viewBox="0 0 500.69 502"><defs><style>.cls-1{fill:#a68951;}</style></defs><title>sanat o madan bank</title><polygon class="cls-1" points="0 1.31 0 502 500.69 502 500.69 1.31 363.06 0 135 225.44 174.32 264.76 250.34 186.12 334.23 264.76 391.9 267.38 446.95 204.47 342.09 199.23 289.67 149.42 381.42 52.43 452.19 52.43 454.81 453.5 51.12 450.88 51.12 49.81 121.9 49.81 232 165.15 271.32 133.69 140.25 0 0 1.31"/><polygon class="cls-1" points="107.48 268.69 173.01 268.69 249.03 344.71 332.92 268.69 367 305.39 249.03 415.49 159.91 326.37 51.12 326.37 107.48 268.69"/></svg>