<svg id="Layer_1" data-name="Layer 1" xmlns="http://www.w3.org/2000/svg" viewBox="0 0 348 462.73"><defs><style>.cls-1{fill:#ce3a3a;}</style></defs><title>SHAHR BANK</title><path class="cls-1" d="M324,439.43v61.19s193.64-52.34,264.89-126.7c24.81-25.89,29.63-66.1,8.54-95.1-15.3-21-44-38.24-97.52-22.95V309.4s22.73-3.79,38.86,4.63c11,5.72,11.6,21.3,1.78,28.83C511.82,364.9,436.12,415.82,324,439.43Z" transform="translate(-324 -37.89)"/><path class="cls-1" d="M672,173.54V112.35s-193.64,52.34-264.89,126.7c-24.81,25.89-29.63,66.1-8.54,95.1,15.3,21,44,38.24,97.52,22.95V303.56s-22.73,3.79-38.86-4.63c-11-5.72-11.6-21.3-1.78-28.83C484.18,248.06,559.88,197.14,672,173.54Z" transform="translate(-324 -37.89)"/><circle class="cls-1" cx="107.08" cy="110.9" r="34.42"/><circle class="cls-1" cx="191.21" cy="65.01" r="34.42"/><circle class="cls-1" cx="290.64" cy="34.42" r="34.42"/></svg>