<svg id="Layer_1" data-name="Layer 1" xmlns="http://www.w3.org/2000/svg" viewBox="0 0 538.8 527.52"><defs><style>.cls-1{fill:#706f6d;}.cls-2{fill:#0b8a93;}</style></defs><title>tosee taavon bank</title><circle class="cls-1" cx="269.61" cy="273.44" r="108.53"/><path class="cls-2" d="M355.1,386l-70,74.76L318.77,522a30,30,0,0,0,15.55,13.54L345.93,540a30,30,0,0,0,16.6,1.39L431,527.66l8.5-103.13A136.62,136.62,0,0,1,355.1,386Z" transform="translate(-181.2 -14.46)"/><path class="cls-2" d="M313.72,287.9A138.26,138.26,0,0,1,315,269L212.41,258,183.83,321.8a30,30,0,0,0-1.45,20.57l3.45,12a30,30,0,0,0,8.88,14.09l52.23,46.41L334,359.72A136.44,136.44,0,0,1,313.72,287.9Z" transform="translate(-181.2 -14.46)"/><path class="cls-2" d="M382.95,169.6,327.17,79.87,259.32,96.53A30,30,0,0,0,242.21,108l-7.31,10.07a30,30,0,0,0-5.64,15.67l-4.48,69.73,99.31,35.6A137.55,137.55,0,0,1,382.95,169.6Z" transform="translate(-181.2 -14.46)"/><path class="cls-2" d="M450.82,150.81a136.76,136.76,0,0,1,48.88,9l32.09-98.37L475.35,20.22a30,30,0,0,0-19.82-5.68l-12.41.89a30,30,0,0,0-15.62,5.77L371.25,62.66l35.39,95.42A136.92,136.92,0,0,1,450.82,150.81Z" transform="translate(-181.2 -14.46)"/><path class="cls-2" d="M677.38,127.85l-7.83-9.67a30,30,0,0,0-13.66-9.53L589.72,86.19l-61.53,88.55a137.38,137.38,0,0,1,53.36,71.76l1.3-.4c.11.36.21.72.32,1.08l99.32-30L684,147.36A30,30,0,0,0,677.38,127.85Z" transform="translate(-181.2 -14.46)"/><path class="cls-2" d="M550.79,383.2a136.71,136.71,0,0,1-82.87,40.9l13.75,102.09,68.72,12.6a30,30,0,0,0,20.32-3.48l10.79-6.2a30,30,0,0,0,11.57-12l32.66-61.77Z" transform="translate(-181.2 -14.46)"/><path class="cls-2" d="M718.33,330.79l-23-66-108.31,6-.1.34q.23,1.93.41,3.88c0,.2,0,.41.05.61q.14,1.63.25,3.28c0,.31,0,.62.06.93q.09,1.53.14,3.06c0,.33,0,.66,0,1,0,1.32.06,2.64.06,4,0,1.49,0,3-.08,4.45,0,.41,0,.81,0,1.22q-.07,1.82-.19,3.63c0,.29,0,.58-.05.86q-.16,2.2-.39,4.37c0,.31-.07.61-.1.92q-.2,1.81-.45,3.61c0,.33-.09.67-.14,1-.22,1.47-.45,2.93-.71,4.39v0c-.26,1.44-.55,2.87-.85,4.3l-.19.86c-.3,1.38-.63,2.76-1,4.12l0,.14q-.56,2.22-1.2,4.41l-.14.48q-.59,2-1.24,4L581,331q-1.44,4.35-3.17,8.58l-.13.32q-1.76,4.28-3.79,8.41l0,0a136.85,136.85,0,0,1-6.82,12.22l82.08,58,56-41.76a30,30,0,0,0,11.28-17.26l2.81-12.12A30,30,0,0,0,718.33,330.79Z" transform="translate(-181.2 -14.46)"/></svg>